800.ufo
<glyph name="exclam" format="1">
  <advance width="619.700"/>
  <unicode hex="0021"/>
  <outline>
    <contour>
      <point x="262" y="436" type="line"/>
      <point x="372" y="436" type="line"/>
      <point x="431" y="1239" type="line"/>
      <point x="431" y="1444" type="line"/>
      <point x="195" y="1444" type="line"/>
      <point x="195" y="1239" type="line"/>
    </contour>
    <contour>
      <point x="310" y="-8" type="curve" smooth="yes"/>
      <point x="396" y="-8"/>
      <point x="458" y="61"/>
      <point x="458" y="140" type="curve" smooth="yes"/>
      <point x="458" y="219"/>
      <point x="396" y="288"/>
      <point x="310" y="288" type="curve" smooth="yes"/>
      <point x="224" y="288"/>
      <point x="162" y="219"/>
      <point x="162" y="140" type="curve" smooth="yes"/>
      <point x="162" y="61"/>
      <point x="224" y="-8"/>
    </contour>
  </outline>
</glyph>
<glyph name="numbersign" format="1">
  <advance width="1209.900"/>
  <unicode hex="0023"/>
  <outline>
    <contour>
      <point x="228" y="-3" type="line"/>
      <point x="376" y="-3" type="line"/>
      <point x="461" y="440" type="line"/>
      <point x="691" y="440" type="line"/>
      <point x="608" y="-3" type="line"/>
      <point x="756" y="-3" type="line"/>
      <point x="840" y="440" type="line"/>
      <point x="1041" y="440" type="line"/>
      <point x="1059" y="560" type="line"/>
      <point x="864" y="560" type="line"/>
      <point x="936" y="941" type="line"/>
      <point x="1127" y="941" type="line"/>
      <point x="1144" y="1061" type="line"/>
      <point x="959" y="1061" type="line"/>
      <point x="1027" y="1420" type="line"/>
      <point x="877" y="1420" type="line"/>
      <point x="809" y="1061" type="line"/>
      <point x="579" y="1061" type="line"/>
      <point x="647" y="1420" type="line"/>
      <point x="496" y="1420" type="line"/>
      <point x="429" y="1061" type="line"/>
      <point x="221" y="1061" type="line"/>
      <point x="203" y="941" type="line"/>
      <point x="406" y="941" type="line"/>
      <point x="335" y="560" type="line"/>
      <point x="135" y="560" type="line"/>
      <point x="118" y="440" type="line"/>
      <point x="311" y="440" type="line"/>
    </contour>
    <contour>
      <point x="483" y="560" type="line"/>
      <point x="556" y="941" type="line"/>
      <point x="785" y="941" type="line"/>
      <point x="713" y="560" type="line"/>
    </contour>
  </outline>
</glyph>
<glyph name="dollar" format="1">
  <advance width="1232"/>
  <unicode hex="0024"/>
  <outline>
    <contour>
      <point x="608" y="1706" type="line"/>
      <point x="597" y="1382" type="line"/>
      <point x="714" y="1382" type="line"/>
      <point x="714" y="1706" type="line"/>
    </contour>
    <contour>
      <point x="567" y="82" type="line"/>
      <point x="567" y="-242" type="line"/>
      <point x="674" y="-242" type="line"/>
      <point x="684" y="82" type="line"/>
    </contour>
    <component base="S"/>
  </outline>
</glyph>
<glyph name="percent" format="1">
  <advance width="1824"/>
  <unicode hex="0025"/>
  <outline>
    <contour>
      <point x="408" y="860" type="curve" smooth="yes"/>
      <point x="272" y="860"/>
      <point x="212" y="964"/>
      <point x="212" y="1103" type="curve" smooth="yes"/>
      <point x="212" y="1237"/>
      <point x="272" y="1343"/>
      <point x="408" y="1343" type="curve" smooth="yes"/>
      <point x="542" y="1343"/>
      <point x="602" y="1243"/>
      <point x="602" y="1103" type="curve" smooth="yes"/>
      <point x="602" y="967"/>
      <point x="543" y="860"/>
    </contour>
    <contour>
      <point x="408" y="732" type="curve" smooth="yes"/>
      <point x="635" y="732"/>
      <point x="759" y="893"/>
      <point x="759" y="1101" type="curve" smooth="yes"/>
      <point x="759" y="1312"/>
      <point x="638" y="1469"/>
      <point x="408" y="1469" type="curve" smooth="yes"/>
      <point x="183" y="1469"/>
      <point x="60" y="1309"/>
      <point x="60" y="1101" type="curve" smooth="yes"/>
      <point x="60" y="893"/>
      <point x="180" y="732"/>
    </contour>
    <contour>
      <point x="407" y="0" type="line"/>
      <point x="582" y="0" type="line"/>
      <point x="1410" y="1456" type="line"/>
      <point x="1244" y="1456" type="line"/>
    </contour>
    <contour>
      <point x="1414" y="114" type="curve" smooth="yes"/>
      <point x="1278" y="114"/>
      <point x="1218" y="218"/>
      <point x="1218" y="357" type="curve" smooth="yes"/>
      <point x="1218" y="491"/>
      <point x="1278" y="597"/>
      <point x="1414" y="597" type="curve" smooth="yes"/>
      <point x="1548" y="597"/>
      <point x="1608" y="497"/>
      <point x="1608" y="357" type="curve" smooth="yes"/>
      <point x="1608" y="221"/>
      <point x="1549" y="114"/>
    </contour>
    <contour>
      <point x="1413" y="-14" type="curve" smooth="yes"/>
      <point x="1640" y="-14"/>
      <point x="1764" y="147"/>
      <point x="1764" y="355" type="curve" smooth="yes"/>
      <point x="1764" y="566"/>
      <point x="1643" y="723"/>
      <point x="1413" y="723" type="curve" smooth="yes"/>
      <point x="1188" y="723"/>
      <point x="1065" y="563"/>
      <point x="1065" y="355" type="curve" smooth="yes"/>
      <point x="1065" y="147"/>
      <point x="1185" y="-14"/>
    </contour>
  </outline>
</glyph>
<glyph name="ampersand" format="1">
  <advance width="1362.400"/>
  <unicode hex="0026"/>
  <outline>
    <contour>
      <point x="1142" y="-51" type="line"/>
      <point x="1304" y="94" type="line"/>
      <point x="702" y="784" type="line"/>
      <point x="854" y="869"/>
      <point x="1009" y="1002"/>
      <point x="1009" y="1178" type="curve" smooth="yes"/>
      <point x="1009" y="1392"/>
      <point x="808" y="1476"/>
      <point x="628" y="1476" type="curve" smooth="yes"/>
      <point x="434" y="1476"/>
      <point x="245" y="1363"/>
      <point x="245" y="1146" type="curve" smooth="yes"/>
      <point x="245" y="1023"/>
      <point x="305" y="906"/>
      <point x="381" y="819" type="curve"/>
      <point x="221" y="731"/>
      <point x="95" y="597"/>
      <point x="95" y="390" type="curve" smooth="yes"/>
      <point x="95" y="105"/>
      <point x="317" y="-29"/>
      <point x="603" y="-20" type="curve" smooth="yes"/>
      <point x="982" y="-8"/>
      <point x="1193" y="271"/>
      <point x="1321" y="505" type="curve"/>
      <point x="1153" y="614" type="line"/>
      <point x="1053" y="422"/>
      <point x="870" y="172"/>
      <point x="610" y="172" type="curve" smooth="yes"/>
      <point x="471" y="172"/>
      <point x="342" y="246"/>
      <point x="342" y="406" type="curve" smooth="yes"/>
      <point x="342" y="516"/>
      <point x="409" y="623"/>
      <point x="500" y="675" type="curve"/>
    </contour>
    <contour>
      <point x="587" y="921" type="curve"/>
      <point x="519" y="991"/>
      <point x="477" y="1082"/>
      <point x="477" y="1165" type="curve" smooth="yes"/>
      <point x="477" y="1262"/>
      <point x="543" y="1306"/>
      <point x="635" y="1306" type="curve" smooth="yes"/>
      <point x="723" y="1306"/>
      <point x="783" y="1263"/>
      <point x="783" y="1171" type="curve" smooth="yes"/>
      <point x="783" y="1064"/>
      <point x="685" y="973"/>
    </contour>
  </outline>
</glyph>
<glyph name="parenright" format="1">
  <advance width="728.300"/>
  <unicode hex="0029"/>
  <outline>
    <contour>
      <point x="114" y="1475" type="line"/>
      <point x="255" y="1231"/>
      <point x="356" y="981"/>
      <point x="356" y="685" type="curve"/>
      <point x="596" y="685" type="line"/>
      <point x="596" y="1017"/>
      <point x="489" y="1275"/>
      <point x="327" y="1505" type="curve"/>
      <point x="114" y="1505" type="line"/>
    </contour>
    <contour>
      <point x="327" y="-135" type="line"/>
      <point x="489" y="95"/>
      <point x="596" y="353"/>
      <point x="596" y="685" type="curve"/>
      <point x="356" y="685" type="line"/>
      <point x="356" y="389"/>
      <point x="255" y="139"/>
      <point x="114" y="-105" type="curve"/>
      <point x="114" y="-135" type="line"/>
    </contour>
  </outline>
</glyph>
<glyph name="asterisk" format="1">
  <advance width="1104.800"/>
  <unicode hex="002A"/>
  <outline>
    <contour>
      <point x="390" y="507" type="line"/>
      <point x="549" y="813" type="line"/>
      <point x="718" y="505" type="line"/>
      <point x="726" y="511"/>
      <point x="905" y="612"/>
      <point x="914" y="618" type="curve"/>
      <point x="900" y="636"/>
      <point x="726" y="856"/>
      <point x="686" y="906" type="curve"/>
      <point x="1015" y="979" type="line"/>
      <point x="953" y="1193" type="line"/>
      <point x="631" y="1060" type="line"/>
      <point x="662" y="1427" type="line"/>
      <point x="440" y="1427" type="line"/>
      <point x="472" y="1060" type="line"/>
      <point x="153" y="1193" type="line"/>
      <point x="89" y="979" type="line"/>
      <point x="415" y="906" type="line"/>
      <point x="189" y="618" type="line"/>
    </contour>
  </outline>
</glyph>
<glyph name="plus" format="1">
  <advance width="1044.800"/>
  <unicode hex="002B"/>
  <outline>
    <contour>
      <point x="459" y="1112" type="line"/>
      <point x="459" y="721" type="line"/>
      <point x="78" y="721" type="line"/>
      <point x="78" y="533" type="line"/>
      <point x="457" y="533" type="line"/>
      <point x="457" y="141" type="line"/>
      <point x="649" y="141" type="line"/>
      <point x="649" y="533" type="line"/>
      <point x="1027" y="533" type="line"/>
      <point x="1027" y="721" type="line"/>
      <point x="650" y="721" type="line"/>
      <point x="650" y="1112" type="line"/>
    </contour>
  </outline>
</glyph>
<glyph name="zero" format="1">
  <advance width="1211.100"/>
  <unicode hex="0030"/>
  <outline>
    <contour>
      <point x="633" y="183" type="curve" smooth="yes"/>
      <point x="437" y="183"/>
      <point x="374" y="444"/>
      <point x="374" y="728" type="curve"/>
      <point x="376" y="1030"/>
      <point x="439" y="1273"/>
      <point x="633" y="1273" type="curve" smooth="yes"/>
      <point x="828" y="1273"/>
      <point x="889" y="1032"/>
      <point x="889" y="726" type="curve" smooth="yes"/>
      <point x="889" y="443"/>
      <point x="828" y="183"/>
    </contour>
    <contour>
      <point x="633" y="-20" type="curve" smooth="yes"/>
      <point x="1014" y="-20"/>
      <point x="1149" y="339"/>
      <point x="1149" y="719" type="curve" smooth="yes"/>
      <point x="1149" y="1131"/>
      <point x="1009" y="1476"/>
      <point x="633" y="1476" type="curve" smooth="yes"/>
      <point x="259" y="1476"/>
      <point x="117" y="1134"/>
      <point x="117" y="719" type="curve" smooth="yes"/>
      <point x="117" y="339"/>
      <point x="253" y="-20"/>
    </contour>
  </outline>
</glyph>
<glyph name="one" format="1">
  <advance width="1207"/>
  <unicode hex="0031"/>
  <outline>
    <contour>
      <point x="235" y="0" type="line"/>
      <point x="1093" y="0" type="line"/>
      <point x="1093" y="198" type="line"/>
      <point x="715" y="198" type="line"/>
      <point x="808" y="105" type="line"/>
      <point x="808" y="1456" type="line"/>
      <point x="587" y="1456" type="line"/>
      <point x="506" y="1398"/>
      <point x="366" y="1347"/>
      <point x="249" y="1316" type="curve"/>
      <point x="249" y="1116" type="line"/>
      <point x="388" y="1137"/>
      <point x="538" y="1194"/>
      <point x="600" y="1251" type="curve"/>
      <point x="554" y="1285" type="line"/>
      <point x="554" y="105" type="line"/>
      <point x="646" y="198" type="line"/>
      <point x="235" y="198" type="line"/>
    </contour>
  </outline>
</glyph>
<glyph name="two" format="1">
  <advance width="1207"/>
  <unicode hex="0032"/>
  <outline>
    <contour>
      <point x="272" y="1159" type="line"/>
      <point x="342" y="1206"/>
      <point x="464" y="1250"/>
      <point x="570" y="1250" type="curve" smooth="yes"/>
      <point x="678" y="1250"/>
      <point x="780" y="1204"/>
      <point x="780" y="1059" type="curve" smooth="yes"/>
      <point x="780" y="959"/>
      <point x="710" y="848"/>
      <point x="624" y="745" type="curve" smooth="yes"/>
      <point x="176" y="205" type="line"/>
      <point x="185" y="0" type="line"/>
      <point x="1013" y="0" type="line"/>
      <point x="1030" y="198" type="line"/>
      <point x="356" y="198" type="line"/>
      <point x="398" y="116" type="line"/>
      <point x="776" y="563" type="line"/>
      <point x="953" y="754"/>
      <point x="1036" y="899"/>
      <point x="1036" y="1071" type="curve" smooth="yes"/>
      <point x="1036" y="1371"/>
      <point x="817" y="1476"/>
      <point x="601" y="1476" type="curve" smooth="yes"/>
      <point x="446" y="1476"/>
      <point x="286" y="1424"/>
      <point x="186" y="1349" type="curve"/>
      <point x="258" y="1159" type="line"/>
    </contour>
  </outline>
</glyph>
<glyph name="three" format="1">
  <advance width="1207"/>
  <unicode hex="0033"/>
  <outline>
    <contour>
      <point x="591" y="-25" type="curve" smooth="yes"/>
      <point x="855" y="-25"/>
      <point x="1080" y="126"/>
      <point x="1080" y="396" type="curve" smooth="yes"/>
      <point x="1080" y="598"/>
      <point x="968" y="762"/>
      <point x="779" y="784" type="curve"/>
      <point x="777" y="756" type="line"/>
      <point x="948" y="801"/>
      <point x="1043" y="928"/>
      <point x="1043" y="1098" type="curve" smooth="yes"/>
      <point x="1043" y="1324"/>
      <point x="839" y="1476"/>
      <point x="582" y="1476" type="curve" smooth="yes"/>
      <point x="412" y="1476"/>
      <point x="284" y="1439"/>
      <point x="176" y="1372" type="curve"/>
      <point x="247" y="1193" type="line"/>
      <point x="261" y="1193" type="line"/>
      <point x="341" y="1241"/>
      <point x="446" y="1274"/>
      <point x="561" y="1274" type="curve" smooth="yes"/>
      <point x="709" y="1274"/>
      <point x="787" y="1183"/>
      <point x="787" y="1079" type="curve" smooth="yes"/>
      <point x="787" y="915"/>
      <point x="640" y="868"/>
      <point x="443" y="866" type="curve"/>
      <point x="353" y="866" type="line"/>
      <point x="383" y="667" type="line"/>
      <point x="443" y="667" type="line"/>
      <point x="669" y="662"/>
      <point x="813" y="620"/>
      <point x="813" y="407" type="curve" smooth="yes"/>
      <point x="813" y="267"/>
      <point x="705" y="190"/>
      <point x="560" y="190" type="curve" smooth="yes"/>
      <point x="465" y="190"/>
      <point x="359" y="219"/>
      <point x="264" y="273" type="curve"/>
      <point x="249" y="273" type="line"/>
      <point x="175" y="98" type="line"/>
      <point x="294" y="19"/>
      <point x="443" y="-25"/>
    </contour>
  </outline>
</glyph>
<glyph name="four" format="1">
  <advance width="1207"/>
  <unicode hex="0034"/>
  <outline>
    <contour>
      <point x="718" y="0" type="line"/>
      <point x="969" y="0" type="line"/>
      <point x="969" y="319" type="line"/>
      <point x="1126" y="319" type="line"/>
      <point x="1140" y="519" type="line"/>
      <point x="969" y="519" type="line"/>
      <point x="969" y="1456" type="line"/>
      <point x="662" y="1456" type="line"/>
      <point x="98" y="509" type="line"/>
      <point x="98" y="319" type="line"/>
      <point x="718" y="319" type="line"/>
    </contour>
    <contour>
      <point x="355" y="516" type="line"/>
      <point x="718" y="1174" type="line"/>
      <point x="718" y="516" type="line"/>
    </contour>
  </outline>
</glyph>
<glyph name="five" format="1">
  <advance width="1207"/>
  <unicode hex="0035"/>
  <outline>
    <contour>
      <point x="232" y="277" type="line"/>
      <point x="152" y="114" type="line"/>
      <point x="185" y="88"/>
      <point x="377" y="-19"/>
      <point x="586" y="-19" type="curve" smooth="yes"/>
      <point x="908" y="-19"/>
      <point x="1099" y="170"/>
      <point x="1099" y="450" type="curve" smooth="yes"/>
      <point x="1099" y="711"/>
      <point x="929" y="898"/>
      <point x="686" y="898" type="curve" smooth="yes"/>
      <point x="533" y="898"/>
      <point x="454" y="835"/>
      <point x="448" y="828" type="curve"/>
      <point x="453" y="759" type="line"/>
      <point x="484" y="1250" type="line"/>
      <point x="1028" y="1250" type="line"/>
      <point x="1045" y="1456" type="line"/>
      <point x="250" y="1456" type="line"/>
      <point x="211" y="628" type="line"/>
      <point x="395" y="599" type="line"/>
      <point x="458" y="666"/>
      <point x="537" y="699"/>
      <point x="611" y="699" type="curve" smooth="yes"/>
      <point x="748" y="699"/>
      <point x="837" y="602"/>
      <point x="837" y="453" type="curve" smooth="yes"/>
      <point x="837" y="297"/>
      <point x="746" y="186"/>
      <point x="559" y="186" type="curve" smooth="yes"/>
      <point x="435" y="186"/>
      <point x="320" y="245"/>
      <point x="267" y="277" type="curve"/>
    </contour>
  </outline>
</glyph>
<glyph name="seven" format="1">
  <advance width="1207"/>
  <unicode hex="0037"/>
  <outline>
    <contour>
      <point x="325" y="0" type="line"/>
      <point x="602" y="0" type="line"/>
      <point x="1053" y="1280" type="line"/>
      <point x="1053" y="1456" type="line"/>
      <point x="167" y="1456" type="line"/>
      <point x="170" y="1241" type="line"/>
      <point x="760" y="1241" type="line"/>
    </contour>
  </outline>
</glyph>
<glyph name="eight" format="1">
  <advance width="1207"/>
  <unicode hex="0038"/>
  <outline>
    <contour>
      <point x="606" y="-19" type="curve" smooth="yes"/>
      <point x="865" y="-19"/>
      <point x="1101" y="124"/>
      <point x="1101" y="382" type="curve" smooth="yes"/>
      <point x="1101" y="571"/>
      <point x="998" y="713"/>
      <point x="863" y="779" type="curve"/>
      <point x="981" y="842"/>
      <point x="1075" y="945"/>
      <point x="1075" y="1104" type="curve" smooth="yes"/>
      <point x="1075" y="1355"/>
      <point x="858" y="1476"/>
      <point x="606" y="1476" type="curve" smooth="yes"/>
      <point x="355" y="1476"/>
      <point x="133" y="1355"/>
      <point x="133" y="1104" type="curve" smooth="yes"/>
      <point x="133" y="941"/>
      <point x="236" y="839"/>
      <point x="358" y="779" type="curve"/>
      <point x="215" y="712"/>
      <point x="106" y="575"/>
      <point x="106" y="383" type="curve" smooth="yes"/>
      <point x="106" y="125"/>
      <point x="346" y="-19"/>
    </contour>
    <contour>
      <point x="606" y="172" type="curve" smooth="yes"/>
      <point x="449" y="172"/>
      <point x="361" y="266"/>
      <point x="361" y="403" type="curve" smooth="yes"/>
      <point x="361" y="563"/>
      <point x="464" y="656"/>
      <point x="606" y="694" type="curve"/>
      <point x="748" y="656"/>
      <point x="848" y="561"/>
      <point x="848" y="404" type="curve" smooth="yes"/>
      <point x="848" y="265"/>
      <point x="765" y="172"/>
    </contour>
    <contour>
      <point x="607" y="849" type="curve"/>
      <point x="460" y="883"/>
      <point x="377" y="969"/>
      <point x="377" y="1104" type="curve" smooth="yes"/>
      <point x="377" y="1226"/>
      <point x="472" y="1298"/>
      <point x="607" y="1298" type="curve" smooth="yes"/>
      <point x="741" y="1298"/>
      <point x="833" y="1226"/>
      <point x="833" y="1104" type="curve" smooth="yes"/>
      <point x="833" y="969"/>
      <point x="752" y="883"/>
    </contour>
  </outline>
</glyph>
<glyph name="nine" format="1">
  <advance width="1207"/>
  <unicode hex="0039"/>
  <outline>
    <contour>
      <point x="244" y="0" type="line"/>
      <point x="549" y="0" type="line"/>
      <point x="942" y="563" type="line" smooth="yes"/>
      <point x="1041" y="699"/>
      <point x="1129" y="829"/>
      <point x="1129" y="1015" type="curve" smooth="yes"/>
      <point x="1129" y="1290"/>
      <point x="918" y="1476"/>
      <point x="616" y="1476" type="curve" smooth="yes"/>
      <point x="323" y="1476"/>
      <point x="107" y="1293"/>
      <point x="107" y="1018" type="curve" smooth="yes"/>
      <point x="107" y="752"/>
      <point x="310" y="576"/>
      <point x="573" y="576" type="curve" smooth="yes"/>
      <point x="667" y="576"/>
      <point x="786" y="645"/>
      <point x="805" y="658" type="curve"/>
      <point x="755" y="704" type="line"/>
      <point x="755" y="704"/>
      <point x="616" y="524"/>
      <point x="603" y="506" type="curve"/>
      <point x="244" y="7" type="line"/>
    </contour>
    <contour>
      <point x="622" y="766" type="curve" smooth="yes"/>
      <point x="450" y="766"/>
      <point x="367" y="866"/>
      <point x="367" y="1023" type="curve" smooth="yes"/>
      <point x="367" y="1174"/>
      <point x="461" y="1277"/>
      <point x="627" y="1277" type="curve" smooth="yes"/>
      <point x="789" y="1277"/>
      <point x="873" y="1177"/>
      <point x="873" y="1027" type="curve" smooth="yes"/>
      <point x="873" y="863"/>
      <point x="788" y="766"/>
    </contour>
  </outline>
</glyph>
<glyph name="colon" format="1">
  <advance width="623.500"/>
  <unicode hex="003A"/>
  <outline>
    <contour>
      <point x="181" y="855"/>
      <point x="244" y="788"/>
      <point x="329" y="788" type="curve" smooth="yes"/>
      <point x="415" y="788"/>
      <point x="476" y="856"/>
      <point x="476" y="934" type="curve" smooth="yes"/>
      <point x="476" y="1013"/>
      <point x="415" y="1082"/>
      <point x="329" y="1082" type="curve" smooth="yes"/>
      <point x="243" y="1082"/>
      <point x="181" y="1013"/>
      <point x="181" y="934" type="curve" smooth="yes"/>
    </contour>
    <contour>
      <point x="181" y="47"/>
      <point x="244" y="-20"/>
      <point x="329" y="-20" type="curve" smooth="yes"/>
      <point x="415" y="-20"/>
      <point x="476" y="48"/>
      <point x="476" y="126" type="curve" smooth="yes"/>
      <point x="476" y="205"/>
      <point x="415" y="274"/>
      <point x="329" y="274" type="curve" smooth="yes"/>
      <point x="243" y="274"/>
      <point x="181" y="205"/>
      <point x="181" y="126" type="curve" smooth="yes"/>
    </contour>
  </outline>
</glyph>
<glyph name="semicolon" format="1">
  <advance width="620.400"/>
  <unicode hex="003B"/>
  <outline>
    <contour>
      <point x="194" y="-301" type="line"/>
      <point x="349" y="-301" type="line"/>
      <point x="471" y="248" type="line"/>
      <point x="246" y="248" type="line"/>
    </contour>
    <contour>
      <point x="220" y="855"/>
      <point x="283" y="788"/>
      <point x="368" y="788" type="curve" smooth="yes"/>
      <point x="454" y="788"/>
      <point x="515" y="856"/>
      <point x="515" y="934" type="curve" smooth="yes"/>
      <point x="515" y="1013"/>
      <point x="454" y="1082"/>
      <point x="368" y="1082" type="curve" smooth="yes"/>
      <point x="282" y="1082"/>
      <point x="220" y="1013"/>
      <point x="220" y="934" type="curve" smooth="yes"/>
    </contour>
  </outline>
</glyph>
<glyph name="less" format="1">
  <advance width="1115.300"/>
  <unicode hex="003C"/>
  <outline>
    <contour>
      <point x="1020" y="171" type="line"/>
      <point x="1020" y="171"/>
      <point x="1019" y="384"/>
      <point x="1018" y="385" type="curve" smooth="yes"/>
      <point x="366" y="679" type="line"/>
      <point x="1020" y="1001" type="line"/>
      <point x="1020" y="1205" type="line"/>
      <point x="102" y="735" type="line"/>
      <point x="102" y="612" type="line"/>
    </contour>
  </outline>
</glyph>
<glyph name="equal" format="1">
  <advance width="1046"/>
  <unicode hex="003D"/>
  <outline>
    <contour>
      <point x="166" y="1028" type="line"/>
      <point x="166" y="839" type="line"/>
      <point x="880" y="839" type="line"/>
      <point x="880" y="1028" type="line"/>
    </contour>
    <contour>
      <point x="166" y="624" type="line"/>
      <point x="166" y="435" type="line"/>
      <point x="880" y="435" type="line"/>
      <point x="880" y="624" type="line"/>
    </contour>
  </outline>
</glyph>
<glyph name="D" format="1">
  <advance width="1551.800"/>
  <unicode hex="0044"/>
  <outline>
    <contour>
      <point x="185" y="0" type="line"/>
      <point x="1097" y="-80"/>
      <point x="1427" y="182"/>
      <point x="1427" y="728" type="curve" smooth="yes"/>
      <point x="1427" y="1303"/>
      <point x="1094" y="1535"/>
      <point x="185" y="1456" type="curve"/>
    </contour>
    <contour>
      <point x="400" y="1248" type="line"/>
      <point x="979" y="1286"/>
      <point x="1144" y="1140"/>
      <point x="1144" y="723" type="curve" smooth="yes"/>
      <point x="1144" y="347"/>
      <point x="970" y="156"/>
      <point x="401" y="214" type="curve"/>
      <point x="469" y="138" type="line"/>
      <point x="469" y="1317" type="line"/>
    </contour>
    <contour>
      <point x="776" y="0" type="move" name="bot"/>
    </contour>
    <contour>
      <point x="776" y="1423" type="move" name="top"/>
    </contour>
  </outline>
</glyph>
<glyph name="E" format="1">
  <advance width="1239.300"/>
  <unicode hex="0045"/>
  <outline>
    <contour>
      <point x="185" y="1456" type="line"/>
      <point x="185" y="0" type="line"/>
      <point x="1102" y="0" type="line"/>
      <point x="1119" y="214" type="line"/>
      <point x="394" y="214" type="line"/>
      <point x="469" y="140" type="line"/>
      <point x="469" y="741" type="line"/>
      <point x="393" y="661" type="line"/>
      <point x="1065" y="661" type="line"/>
      <point x="1065" y="870" type="line"/>
      <point x="394" y="870" type="line"/>
      <point x="469" y="795" type="line"/>
      <point x="469" y="1323" type="line"/>
      <point x="393" y="1248" type="line"/>
      <point x="1099" y="1248" type="line"/>
      <point x="1109" y="1456" type="line"/>
    </contour>
    <contour>
      <point x="620" y="0" type="move" name="bot"/>
    </contour>
    <contour>
      <point x="765" y="0" type="move" name="ogonek"/>
    </contour>
    <contour>
      <point x="690" y="1456" type="move" name="top"/>
    </contour>
  </outline>
</glyph>
<glyph name="F" format="1">
  <advance width="1176"/>
  <unicode hex="0046"/>
  <outline>
    <contour>
      <point x="185" y="1456" type="line"/>
      <point x="185" y="0" type="line"/>
      <point x="469" y="0" type="line"/>
      <point x="469" y="732" type="line"/>
      <point x="373" y="638" type="line"/>
      <point x="1055" y="638" type="line"/>
      <point x="1055" y="844" type="line"/>
      <point x="369" y="844" type="line"/>
      <point x="469" y="769" type="line"/>
      <point x="469" y="1327" type="line"/>
      <point x="365" y="1239" type="line"/>
      <point x="1112" y="1239" type="line"/>
      <point x="1124" y="1456" type="line"/>
    </contour>
    <contour>
      <point x="588" y="0" type="move" name="bot"/>
    </contour>
    <contour>
      <point x="665" y="1456" type="move" name="top"/>
    </contour>
  </outline>
</glyph>
<glyph name="H" format="1">
  <advance width="1557.600"/>
  <unicode hex="0048"/>
  <outline>
    <contour>
      <point x="1088" y="1456" type="line"/>
      <point x="1088" y="775" type="line"/>
      <point x="1164" y="853" type="line"/>
      <point x="388" y="853" type="line"/>
      <point x="469" y="775" type="line"/>
      <point x="469" y="1456" type="line"/>
      <point x="185" y="1456" type="line"/>
      <point x="185" y="0" type="line"/>
      <point x="469" y="0" type="line"/>
      <point x="469" y="718" type="line"/>
      <point x="389" y="640" type="line"/>
      <point x="1171" y="640" type="line"/>
      <point x="1088" y="718" type="line"/>
      <point x="1088" y="0" type="line"/>
      <point x="1372" y="0" type="line"/>
      <point x="1372" y="1456" type="line"/>
    </contour>
    <contour>
      <point x="779" y="0" type="move" name="bot"/>
    </contour>
    <contour>
      <point x="779" y="1456" type="move" name="top"/>
    </contour>
  </outline>
</glyph>
<glyph name="I" format="1">
  <advance width="855"/>
  <unicode hex="0049"/>
  <outline>
    <contour>
      <point x="119" y="1456" type="line"/>
      <point x="119" y="1287" type="line"/>
      <point x="364" y="1287" type="line"/>
      <point x="287" y="1347" type="line"/>
      <point x="287" y="104" type="line"/>
      <point x="363" y="168" type="line"/>
      <point x="119" y="168" type="line"/>
      <point x="119" y="0" type="line"/>
      <point x="735" y="0" type="line"/>
      <point x="735" y="168" type="line"/>
      <point x="486" y="168" type="line"/>
      <point x="571" y="103" type="line"/>
      <point x="571" y="1349" type="line"/>
      <point x="486" y="1287" type="line"/>
      <point x="735" y="1287" type="line"/>
      <point x="735" y="1456" type="line"/>
    </contour>
    <contour>
      <point x="428" y="0" type="move" name="bot"/>
    </contour>
    <contour>
      <point x="462" y="0" type="move" name="ogonek"/>
    </contour>
    <contour>
      <point x="428" y="1456" type="move" name="top"/>
    </contour>
  </outline>
</glyph>
<glyph name="J" format="1">
  <advance width="881.300"/>
  <unicode hex="004A"/>
  <outline>
    <contour>
      <point x="412" y="1456" type="line"/>
      <point x="412" y="163" type="line" smooth="yes"/>
      <point x="412" y="-67"/>
      <point x="430" y="-159"/>
      <point x="345" y="-208" type="curve" smooth="yes"/>
      <point x="198" y="-293" type="line"/>
      <point x="298" y="-519" type="line"/>
      <point x="444" y="-449" type="line" smooth="yes"/>
      <point x="710" y="-321"/>
      <point x="697" y="-154"/>
      <point x="697" y="173" type="curve" smooth="yes"/>
      <point x="697" y="1456" type="line"/>
    </contour>
    <contour>
      <point x="441" y="0" type="move" name="bot"/>
    </contour>
    <contour>
      <point x="549" y="1456" type="move" name="top"/>
    </contour>
  </outline>
</glyph>
<glyph name="N" format="1">
  <advance width="1605.400"/>
  <unicode hex="004E"/>
  <outline>
    <contour>
      <point x="1140" y="1456" type="line"/>
      <point x="1140" y="820" type="line"/>
      <point x="1160" y="265" type="line"/>
      <point x="1211" y="266" type="line"/>
      <point x="486" y="1456" type="line"/>
      <point x="185" y="1456" type="line"/>
      <point x="185" y="0" type="line"/>
      <point x="465" y="0" type="line"/>
      <point x="465" y="509" type="line"/>
      <point x="441" y="1177" type="line"/>
      <point x="383" y="1175" type="line"/>
      <point x="1108" y="0" type="line"/>
      <point x="1420" y="0" type="line"/>
      <point x="1420" y="1456" type="line"/>
    </contour>
    <contour>
      <point x="803" y="0" type="move" name="bot"/>
    </contour>
    <contour>
      <point x="843" y="1456" type="move" name="top"/>
    </contour>
  </outline>
</glyph>
<glyph name="R" format="1">
  <advance width="1423.300"/>
  <unicode hex="0052"/>
  <outline>
    <contour>
      <point x="185" y="0" type="line"/>
      <point x="469" y="0" type="line"/>
      <point x="469" y="692" type="line"/>
      <point x="403" y="642" type="line"/>
      <point x="870" y="642" type="line"/>
      <point x="753" y="699" type="line"/>
      <point x="1030" y="0" type="line"/>
      <point x="1322" y="0" type="line"/>
      <point x="1322" y="17" type="line"/>
      <point x="998" y="771" type="line"/>
      <point x="979" y="661" type="line"/>
      <point x="1139" y="715"/>
      <point x="1275" y="804"/>
      <point x="1275" y="1052" type="curve" smooth="yes"/>
      <point x="1275" y="1434"/>
      <point x="1031" y="1498"/>
      <point x="185" y="1456" type="curve"/>
    </contour>
    <contour>
      <point x="470" y="762" type="line"/>
      <point x="470" y="1310" type="line"/>
      <point x="407" y="1248" type="line"/>
      <point x="952" y="1270"/>
      <point x="992" y="1236"/>
      <point x="992" y="1049" type="curve" smooth="yes"/>
      <point x="992" y="897"/>
      <point x="946" y="830"/>
      <point x="747" y="830" type="curve" smooth="yes"/>
      <point x="402" y="830" type="line"/>
    </contour>
    <contour>
      <point x="712" y="0" type="move" name="bot"/>
    </contour>
    <contour>
      <point x="712" y="1456" type="move" name="top"/>
    </contour>
  </outline>
</glyph>
<glyph name="U" format="1">
  <advance width="1522.700"/>
  <unicode hex="0055"/>
  <outline>
    <contour>
      <point x="1079" y="1456" type="line"/>
      <point x="1079" y="530" type="line" smooth="yes"/>
      <point x="1079" y="316"/>
      <point x="963" y="209"/>
      <point x="762" y="209" type="curve" smooth="yes"/>
      <point x="564" y="209"/>
      <point x="444" y="316"/>
      <point x="444" y="530" type="curve" smooth="yes"/>
      <point x="444" y="1456" type="line"/>
      <point x="159" y="1456" type="line"/>
      <point x="159" y="512" type="line" smooth="yes"/>
      <point x="159" y="182"/>
      <point x="393" y="-19"/>
      <point x="762" y="-19" type="curve" smooth="yes"/>
      <point x="1129" y="-19"/>
      <point x="1363" y="185"/>
      <point x="1363" y="511" type="curve" smooth="yes"/>
      <point x="1363" y="1456" type="line"/>
    </contour>
    <contour>
      <point x="761" y="0" type="move" name="bot"/>
    </contour>
    <contour>
      <point x="869" y="0" type="move" name="ogonek"/>
    </contour>
    <contour>
      <point x="774" y="1456" type="move" name="top"/>
    </contour>
  </outline>
</glyph>
<glyph name="V" format="1">
  <advance width="1423.700"/>
  <unicode hex="0056"/>
  <outline>
    <contour>
      <point x="1054" y="1456" type="line"/>
      <point x="803" y="603" type="line"/>
      <point x="682" y="191" type="line"/>
      <point x="750" y="191" type="line"/>
      <point x="626" y="602" type="line"/>
      <point x="372" y="1456" type="line"/>
      <point x="68" y="1456" type="line"/>
      <point x="552" y="0" type="line"/>
      <point x="869" y="0" type="line"/>
      <point x="1355" y="1456" type="line"/>
    </contour>
  </outline>
</glyph>
<glyph name="W" format="1">
  <advance width="2027.800"/>
  <unicode hex="0057"/>
  <outline>
    <contour>
      <point x="1705" y="1456" type="line"/>
      <point x="1417" y="299" type="line"/>
      <point x="1453" y="299" type="line"/>
      <point x="1143" y="1445" type="line"/>
      <point x="885" y="1445" type="line"/>
      <point x="560" y="299" type="line"/>
      <point x="600" y="299" type="line"/>
      <point x="324" y="1456" type="line"/>
      <point x="46" y="1456" type="line"/>
      <point x="438" y="0" type="line"/>
      <point x="704" y="0" type="line"/>
      <point x="1040" y="1152" type="line"/>
      <point x="993" y="1152" type="line"/>
      <point x="1305" y="0" type="line"/>
      <point x="1575" y="0" type="line"/>
      <point x="1982" y="1456" type="line"/>
    </contour>
    <contour>
      <point x="1014" y="0" type="move" name="bot"/>
    </contour>
    <contour>
      <point x="1014" y="1456" type="move" name="top"/>
    </contour>
  </outline>
</glyph>
<glyph name="X" format="1">
  <advance width="1429"/>
  <unicode hex="0058"/>
  <outline>
    <contour>
      <point x="1044" y="1456" type="line"/>
      <point x="723" y="946" type="line"/>
      <point x="578" y="778" type="line"/>
      <point x="79" y="0" type="line"/>
      <point x="370" y="0" type="line"/>
      <point x="731" y="553" type="line"/>
      <point x="862" y="721" type="line"/>
      <point x="1332" y="1456" type="line"/>
    </contour>
    <contour>
      <point x="108" y="1456" type="line"/>
      <point x="1046" y="0" type="line"/>
      <point x="1352" y="0" type="line"/>
      <point x="407" y="1456" type="line"/>
    </contour>
  </outline>
</glyph>
<glyph name="Y" format="1">
  <advance width="1318.800"/>
  <unicode hex="0059"/>
  <outline>
    <contour>
      <point x="973" y="1456" type="line"/>
      <point x="616" y="713" type="line"/>
      <point x="701" y="713" type="line"/>
      <point x="350" y="1456" type="line"/>
      <point x="52" y="1456" type="line"/>
      <point x="582" y="439" type="line"/>
      <point x="521" y="657" type="line"/>
      <point x="521" y="0" type="line"/>
      <point x="799" y="0" type="line"/>
      <point x="799" y="663" type="line"/>
      <point x="745" y="454" type="line"/>
      <point x="1267" y="1456" type="line"/>
    </contour>
    <contour>
      <point x="659" y="0" type="move" name="bot"/>
    </contour>
    <contour>
      <point x="659" y="1456" type="move" name="top"/>
    </contour>
  </outline>
</glyph>
<glyph name="Z" format="1">
  <advance width="1248.900"/>
  <unicode hex="005A"/>
  <outline>
    <contour>
      <point x="162" y="1456" type="line"/>
      <point x="162" y="1248" type="line"/>
      <point x="883" y="1248" type="line"/>
      <point x="839" y="1332" type="line"/>
      <point x="150" y="173" type="line"/>
      <point x="150" y="0" type="line"/>
      <point x="1130" y="0" type="line"/>
      <point x="1131" y="214" type="line"/>
      <point x="424" y="214" type="line"/>
      <point x="461" y="131" type="line"/>
      <point x="1122" y="1271" type="line"/>
      <point x="1121" y="1456" type="line"/>
    </contour>
    <contour>
      <point x="624" y="0" type="move" name="bot"/>
    </contour>
    <contour>
      <point x="674" y="1456" type="move" name="top"/>
    </contour>
  </outline>
</glyph>
<glyph name="bracketleft" format="1">
  <advance width="744.400"/>
  <unicode hex="005B"/>
  <outline>
    <contour>
      <point x="206" y="-132" type="line"/>
      <point x="657" y="-132" type="line"/>
      <point x="657" y="47" type="line"/>
      <point x="447" y="47" type="line"/>
      <point x="447" y="1321" type="line"/>
      <point x="657" y="1321" type="line"/>
      <point x="657" y="1500" type="line"/>
      <point x="206" y="1500" type="line"/>
    </contour>
  </outline>
</glyph>
<glyph name="backslash" format="1">
  <advance width="854.600"/>
  <unicode hex="005C"/>
  <outline>
    <contour>
      <point x="580" y="-6" type="line"/>
      <point x="802" y="-6" type="line"/>
      <point x="332" y="1408" type="line"/>
      <point x="106" y="1408" type="line"/>
    </contour>
  </outline>
</glyph>
<glyph name="b" format="1">
  <advance width="1241.700"/>
  <unicode hex="0062"/>
  <outline>
    <contour>
      <point x="154" y="1540" type="line"/>
      <point x="154" y="0" type="line"/>
      <point x="372" y="0" type="line"/>
      <point x="401" y="193" type="line"/>
      <point x="357" y="176" type="line"/>
      <point x="416" y="72"/>
      <point x="552" y="-19"/>
      <point x="702" y="-19" type="curve" smooth="yes"/>
      <point x="973" y="-19"/>
      <point x="1140" y="215"/>
      <point x="1140" y="548" type="curve" smooth="yes"/>
      <point x="1140" y="871"/>
      <point x="983" y="1102"/>
      <point x="707" y="1102" type="curve" smooth="yes"/>
      <point x="553" y="1102"/>
      <point x="436" y="1014"/>
      <point x="371" y="921" type="curve"/>
      <point x="403" y="904" type="line"/>
      <point x="409" y="1136" type="line"/>
      <point x="409" y="1560" type="line"/>
    </contour>
    <contour>
      <point x="792" y="908"/>
      <point x="886" y="799"/>
      <point x="886" y="545" type="curve" smooth="yes"/>
      <point x="886" y="296"/>
      <point x="786" y="177"/>
      <point x="644" y="177" type="curve" smooth="yes"/>
      <point x="545" y="177"/>
      <point x="443" y="229"/>
      <point x="404" y="349" type="curve"/>
      <point x="404" y="557" type="line"/>
      <point x="406" y="806"/>
      <point x="505" y="908"/>
      <point x="649" y="908" type="curve" smooth="yes"/>
    </contour>
    <contour>
      <point x="621" y="1066" type="move" name="top"/>
    </contour>
  </outline>
</glyph>
<glyph name="c" format="1">
  <advance width="1013.800"/>
  <unicode hex="0063"/>
  <outline>
    <contour>
      <point x="868" y="307" type="line"/>
      <point x="831" y="228"/>
      <point x="741" y="179"/>
      <point x="630" y="179" type="curve" smooth="yes"/>
      <point x="462" y="179"/>
      <point x="356" y="319"/>
      <point x="356" y="541" type="curve" smooth="yes"/>
      <point x="356" y="763"/>
      <point x="462" y="903"/>
      <point x="630" y="903" type="curve" smooth="yes"/>
      <point x="743" y="903"/>
      <point x="833" y="853"/>
      <point x="869" y="773" type="curve"/>
      <point x="894" y="773" type="line"/>
      <point x="1034" y="857" type="line"/>
      <point x="975" y="1007"/>
      <point x="819" y="1102"/>
      <point x="630" y="1102" type="curve" smooth="yes"/>
      <point x="306" y="1102"/>
      <point x="102" y="886"/>
      <point x="102" y="541" type="curve" smooth="yes"/>
      <point x="102" y="196"/>
      <point x="306" y="-20"/>
      <point x="630" y="-20" type="curve" smooth="yes"/>
      <point x="819" y="-20"/>
      <point x="975" y="75"/>
      <point x="1034" y="225" type="curve"/>
      <point x="898" y="307" type="line"/>
    </contour>
    <contour>
      <point x="607" y="0" type="move" name="bot"/>
    </contour>
    <contour>
      <point x="618" y="1082" type="move" name="top"/>
    </contour>
  </outline>
</glyph>
<glyph name="d" format="1">
  <advance width="1239.200"/>
  <unicode hex="0064"/>
  <outline>
    <contour>
      <point x="832" y="1540" type="line"/>
      <point x="832" y="1120" type="line"/>
      <point x="843" y="908" type="line"/>
      <point x="882" y="928" type="line"/>
      <point x="821" y="1034"/>
      <point x="715" y="1102"/>
      <point x="546" y="1102" type="curve" smooth="yes"/>
      <point x="269" y="1102"/>
      <point x="102" y="877"/>
      <point x="102" y="546" type="curve" smooth="yes"/>
      <point x="102" y="213"/>
      <point x="269" y="-18"/>
      <point x="546" y="-18" type="curve" smooth="yes"/>
      <point x="758" y="-18"/>
      <point x="841" y="97"/>
      <point x="886" y="184" type="curve"/>
      <point x="835" y="185" type="line"/>
      <point x="868" y="0" type="line"/>
      <point x="1086" y="0" type="line"/>
      <point x="1086" y="1560" type="line"/>
    </contour>
    <contour>
      <point x="598" y="177" type="curve" smooth="yes"/>
      <point x="445" y="177"/>
      <point x="356" y="292"/>
      <point x="356" y="541" type="curve" smooth="yes"/>
      <point x="356" y="804"/>
      <point x="468" y="906"/>
      <point x="610" y="906" type="curve" smooth="yes"/>
      <point x="721" y="906"/>
      <point x="800" y="848"/>
      <point x="843" y="791" type="curve"/>
      <point x="843" y="313" type="line"/>
      <point x="797" y="237"/>
      <point x="723" y="177"/>
    </contour>
    <contour>
      <point x="588" y="1082" type="move" name="top"/>
    </contour>
    <contour>
      <point x="970" y="1082" type="move" name="caron.alt"/>
    </contour>
    <contour>
      <point x="951" y="1238" type="move" name="mid"/>
    </contour>
  </outline>
</glyph>
<glyph name="e" format="1">
  <advance width="1191.600"/>
  <unicode hex="0065"/>
  <outline>
    <contour>
      <point x="326" y="1101"/>
      <point x="102" y="883"/>
      <point x="102" y="547" type="curve" smooth="yes"/>
      <point x="102" y="203"/>
      <point x="334" y="-20"/>
      <point x="661" y="-20" type="curve" smooth="yes"/>
      <point x="824" y="-20"/>
      <point x="956" y="10"/>
      <point x="1057" y="73" type="curve"/>
      <point x="1023" y="243" type="line"/>
      <point x="1005" y="243" type="line"/>
      <point x="941" y="208"/>
      <point x="824" y="171"/>
      <point x="685" y="171" type="curve" smooth="yes"/>
      <point x="499" y="171"/>
      <point x="358" y="290"/>
      <point x="358" y="531" type="curve"/>
      <point x="308" y="486" type="line"/>
      <point x="1078" y="486" type="line"/>
      <point x="1078" y="486"/>
      <point x="1086" y="580"/>
      <point x="1086" y="597" type="curve" smooth="yes"/>
      <point x="1086" y="893"/>
      <point x="914" y="1102"/>
      <point x="624" y="1102" type="curve" smooth="yes"/>
    </contour>
    <contour>
      <point x="749" y="917"/>
      <point x="833" y="830"/>
      <point x="847" y="650" type="curve"/>
      <point x="366" y="650" type="line"/>
      <point x="385" y="832"/>
      <point x="516" y="917"/>
      <point x="626" y="917" type="curve" smooth="yes"/>
    </contour>
    <contour>
      <point x="596" y="0" type="move" name="bot"/>
    </contour>
    <contour>
      <point x="626" y="1066" type="move" name="top"/>
    </contour>
    <contour>
      <point x="796" y="0" type="move" name="ogonek"/>
    </contour>
  </outline>
</glyph>
<glyph name="g" format="1">
  <advance width="1241.300"/>
  <unicode hex="0067"/>
  <outline>
    <contour>
      <point x="522" y="-483" type="curve" smooth="yes"/>
      <point x="911" y="-483"/>
      <point x="1095" y="-250"/>
      <point x="1095" y="135" type="curve" smooth="yes"/>
      <point x="1095" y="1066" type="line"/>
      <point x="870" y="1066" type="line"/>
      <point x="851" y="879" type="line"/>
      <point x="888" y="888" type="line"/>
      <point x="829" y="1037"/>
      <point x="711" y="1091"/>
      <point x="565" y="1091" type="curve" smooth="yes"/>
      <point x="305" y="1091"/>
      <point x="89" y="886"/>
      <point x="89" y="542" type="curve" smooth="yes"/>
      <point x="89" y="231"/>
      <point x="275" y="19"/>
      <point x="555" y="19" type="curve" smooth="yes"/>
      <point x="710" y="19"/>
      <point x="847" y="71"/>
      <point x="898" y="274" type="curve"/>
      <point x="849" y="282" type="line"/>
      <point x="849" y="37" type="line" smooth="yes"/>
      <point x="849" y="-151"/>
      <point x="751" y="-283"/>
      <point x="518" y="-283" type="curve" smooth="yes"/>
      <point x="446" y="-283"/>
      <point x="341" y="-279"/>
      <point x="262" y="-266" type="curve"/>
      <point x="242" y="-265.995" type="line"/>
      <point x="242" y="-459" type="line"/>
      <point x="364" y="-480"/>
      <point x="434" y="-483"/>
    </contour>
    <contour>
      <point x="600" y="213" type="curve" smooth="yes"/>
      <point x="412" y="213"/>
      <point x="343" y="349"/>
      <point x="343" y="549" type="curve" smooth="yes"/>
      <point x="343" y="749"/>
      <point x="425" y="895"/>
      <point x="609" y="895" type="curve" smooth="yes"/>
      <point x="785" y="895"/>
      <point x="852" y="773"/>
      <point x="852" y="565" type="curve" smooth="yes"/>
      <point x="852" y="527" type="line"/>
      <point x="850" y="334"/>
      <point x="787" y="213"/>
    </contour>
    <contour>
      <point x="621" y="0" type="move" name="bot"/>
    </contour>
    <contour>
      <point x="614" y="1066" type="move" name="top"/>
    </contour>
  </outline>
</glyph>
<glyph name="h" format="1">
  <advance width="1227.800"/>
  <unicode hex="0068"/>
  <outline>
    <contour>
      <point x="154" y="1540" type="line"/>
      <point x="154" y="0" type="line"/>
      <point x="406" y="0" type="line"/>
      <point x="406" y="536" type="line" smooth="yes"/>
      <point x="406" y="749"/>
      <point x="456" y="907"/>
      <point x="662" y="907" type="curve" smooth="yes"/>
      <point x="789" y="907"/>
      <point x="830" y="831"/>
      <point x="830" y="660" type="curve" smooth="yes"/>
      <point x="830" y="0" type="line"/>
      <point x="1085" y="0" type="line"/>
      <point x="1085" y="682" type="line" smooth="yes"/>
      <point x="1085" y="970"/>
      <point x="938" y="1102"/>
      <point x="712" y="1102" type="curve" smooth="yes"/>
      <point x="557" y="1102"/>
      <point x="420" y="1022"/>
      <point x="348" y="903" type="curve"/>
      <point x="399" y="883" type="line"/>
      <point x="408" y="1163" type="line"/>
      <point x="408" y="1560" type="line"/>
    </contour>
    <contour>
      <point x="677" y="1365" type="move" name="top"/>
    </contour>
    <contour>
      <point x="324" y="1238" type="move" name="mid"/>
    </contour>
  </outline>
</glyph>
<glyph name="l" format="1">
  <advance width="746.400"/>
  <unicode hex="006C"/>
  <outline>
    <contour>
      <point x="546" y="-14" type="curve" smooth="yes"/>
      <point x="640" y="-14"/>
      <point x="724" y="16"/>
      <point x="726" y="16" type="curve"/>
      <point x="726" y="188" type="line"/>
      <point x="725" y="188"/>
      <point x="659" y="177"/>
      <point x="590" y="177" type="curve" smooth="yes"/>
      <point x="490" y="177"/>
      <point x="409" y="194"/>
      <point x="409" y="361" type="curve" smooth="yes"/>
      <point x="409" y="1560" type="line"/>
      <point x="155" y="1540" type="line"/>
      <point x="155" y="388" type="line" smooth="yes"/>
      <point x="155" y="103"/>
      <point x="271" y="-14"/>
    </contour>
    <contour>
      <point x="316" y="1082" type="move" name="caron.alt"/>
    </contour>
    <contour>
      <point x="296" y="763" type="move" name="mid"/>
    </contour>
    <contour>
      <point x="294" y="1560" type="move" name="top"/>
    </contour>
    <contour>
      <point x="377" y="0" type="move" name="bot"/>
    </contour>
  </outline>
</glyph>
<glyph name="m" format="1">
  <advance width="1809"/>
  <unicode hex="006D"/>
  <outline>
    <contour>
      <point x="154" y="0" type="line"/>
      <point x="408" y="0" type="line"/>
      <point x="408" y="548" type="line" smooth="yes"/>
      <point x="408" y="753"/>
      <point x="446" y="907"/>
      <point x="636" y="907" type="curve" smooth="yes"/>
      <point x="763" y="907"/>
      <point x="786" y="810"/>
      <point x="786" y="627" type="curve" smooth="yes"/>
      <point x="786" y="0" type="line"/>
      <point x="1040" y="0" type="line"/>
      <point x="1040" y="625" type="line"/>
      <point x="1046" y="680"/>
      <point x="1054" y="726"/>
      <point x="1067" y="764" type="curve" smooth="yes"/>
      <point x="1096" y="853"/>
      <point x="1156" y="907"/>
      <point x="1258" y="907" type="curve" smooth="yes"/>
      <point x="1389" y="907"/>
      <point x="1412" y="805"/>
      <point x="1412" y="618" type="curve" smooth="yes"/>
      <point x="1412" y="0" type="line"/>
      <point x="1667" y="0" type="line"/>
      <point x="1667" y="690" type="line" smooth="yes"/>
      <point x="1667" y="953"/>
      <point x="1558" y="1102"/>
      <point x="1316" y="1102" type="curve" smooth="yes"/>
      <point x="1173" y="1102"/>
      <point x="1048" y="1033"/>
      <point x="965" y="890" type="curve"/>
      <point x="1022" y="890" type="line"/>
      <point x="960" y="1030"/>
      <point x="875" y="1102"/>
      <point x="707" y="1102" type="curve" smooth="yes"/>
      <point x="521" y="1102"/>
      <point x="406" y="1006"/>
      <point x="344" y="897" type="curve"/>
      <point x="398" y="890" type="line"/>
      <point x="361" y="1082" type="line"/>
      <point x="154" y="1082" type="line"/>
    </contour>
    <contour>
      <point x="905" y="0" type="move" name="bot"/>
    </contour>
    <contour>
      <point x="1008" y="1082" type="move" name="top"/>
    </contour>
  </outline>
</glyph>
<glyph name="n" format="1">
  <advance width="1258.700"/>
  <unicode hex="006E"/>
  <outline>
    <contour>
      <point x="154" y="0" type="line"/>
      <point x="408" y="0" type="line"/>
      <point x="408" y="542" type="line" smooth="yes"/>
      <point x="408" y="761"/>
      <point x="477" y="907"/>
      <point x="689" y="907" type="curve" smooth="yes"/>
      <point x="826" y="907"/>
      <point x="860" y="816"/>
      <point x="861" y="657" type="curve"/>
      <point x="861" y="0" type="line"/>
      <point x="1116" y="0" type="line"/>
      <point x="1116" y="679" type="line" smooth="yes"/>
      <point x="1116" y="947"/>
      <point x="998" y="1102"/>
      <point x="751" y="1102" type="curve" smooth="yes"/>
      <point x="563" y="1102"/>
      <point x="434" y="1019"/>
      <point x="345" y="890" type="curve"/>
      <point x="399" y="890" type="line"/>
      <point x="362" y="1082" type="line"/>
      <point x="154" y="1082" type="line"/>
    </contour>
    <contour>
      <point x="629" y="0" type="move" name="bot"/>
    </contour>
    <contour>
      <point x="655" y="1082" type="move" name="top"/>
    </contour>
    <contour>
      <point x="191" y="1082" type="move" name="caron.alt"/>
    </contour>
  </outline>
</glyph>
<glyph name="p" format="1">
  <advance width="1241.900"/>
  <unicode hex="0070"/>
  <outline>
    <contour>
      <point x="156" y="-434" type="line"/>
      <point x="409" y="-422" type="line"/>
      <point x="409" y="-24" type="line"/>
      <point x="403" y="207" type="line"/>
      <point x="353" y="181" type="line"/>
      <point x="394" y="105"/>
      <point x="511" y="-20"/>
      <point x="700" y="-20" type="curve" smooth="yes"/>
      <point x="974" y="-20"/>
      <point x="1140" y="225"/>
      <point x="1140" y="546" type="curve" smooth="yes"/>
      <point x="1140" y="859"/>
      <point x="984" y="1102"/>
      <point x="719" y="1102" type="curve" smooth="yes"/>
      <point x="578" y="1102"/>
      <point x="433" y="1035"/>
      <point x="347" y="885" type="curve"/>
      <point x="409" y="885" type="line"/>
      <point x="375" y="1082" type="line"/>
      <point x="156" y="1082" type="line"/>
    </contour>
    <contour>
      <point x="652" y="176" type="curve" smooth="yes"/>
      <point x="514" y="176"/>
      <point x="435" y="260"/>
      <point x="407" y="349" type="curve"/>
      <point x="407" y="563" type="line"/>
      <point x="409" y="803"/>
      <point x="495" y="907"/>
      <point x="650" y="907" type="curve" smooth="yes"/>
      <point x="794" y="907"/>
      <point x="885" y="794"/>
      <point x="885" y="548" type="curve" smooth="yes"/>
      <point x="885" y="310"/>
      <point x="795" y="176"/>
    </contour>
    <contour>
      <point x="621" y="0" type="move" name="bot"/>
    </contour>
    <contour>
      <point x="689" y="1066" type="move" name="top"/>
    </contour>
  </outline>
</glyph>
<glyph name="q" format="1">
  <advance width="1242.800"/>
  <unicode hex="0071"/>
  <outline>
    <contour>
      <point x="867" y="1066" type="line"/>
      <point x="841" y="873" type="line"/>
      <point x="875" y="916" type="line"/>
      <point x="819" y="1004"/>
      <point x="725" y="1091"/>
      <point x="549" y="1091" type="curve" smooth="yes"/>
      <point x="262" y="1091"/>
      <point x="102" y="857"/>
      <point x="102" y="537" type="curve" smooth="yes"/>
      <point x="102" y="211"/>
      <point x="281" y="-19.0001"/>
      <point x="553" y="-19.0001" type="curve" smooth="yes"/>
      <point x="697" y="-19"/>
      <point x="798" y="45"/>
      <point x="871" y="150" type="curve"/>
      <point x="842" y="186" type="line"/>
      <point x="836" y="3.9998" type="line"/>
      <point x="836" y="-433" type="line"/>
      <point x="1090" y="-419" type="line"/>
      <point x="1090" y="1066" type="line"/>
    </contour>
    <contour>
      <point x="610" y="177" type="curve" smooth="yes"/>
      <point x="468" y="177"/>
      <point x="356" y="279"/>
      <point x="356" y="542" type="curve" smooth="yes"/>
      <point x="356" y="791"/>
      <point x="445" y="906"/>
      <point x="598" y="906" type="curve" smooth="yes"/>
      <point x="723" y="906"/>
      <point x="797" y="846"/>
      <point x="843" y="770" type="curve"/>
      <point x="843" y="292" type="line"/>
      <point x="800" y="235"/>
      <point x="721" y="177"/>
    </contour>
  </outline>
</glyph>
<glyph name="r" format="1">
  <advance width="846.400"/>
  <unicode hex="0072"/>
  <outline>
    <contour>
      <point x="155" y="0" type="line"/>
      <point x="409" y="0" type="line"/>
      <point x="409" y="598" type="line" smooth="yes"/>
      <point x="409" y="765"/>
      <point x="521" y="876"/>
      <point x="703" y="876" type="curve" smooth="yes"/>
      <point x="729" y="876"/>
      <point x="755" y="874"/>
      <point x="789" y="868" type="curve"/>
      <point x="793" y="1082" type="line"/>
      <point x="766" y="1087"/>
      <point x="743" y="1088"/>
      <point x="718" y="1088" type="curve" smooth="yes"/>
      <point x="593" y="1088"/>
      <point x="448" y="1016"/>
      <point x="350" y="852" type="curve"/>
      <point x="408" y="841" type="line"/>
      <point x="369" y="1082" type="line"/>
      <point x="155" y="1082" type="line"/>
    </contour>
    <contour>
      <point x="423" y="0" type="move" name="bot"/>
    </contour>
    <contour>
      <point x="479" y="1082" type="move" name="top"/>
    </contour>
  </outline>
</glyph>
<glyph name="s" format="1">
  <advance width="1000.500"/>
  <unicode hex="0073"/>
  <outline>
    <contour>
      <point x="195" y="237" type="line"/>
      <point x="140" y="78" type="line"/>
      <point x="163" y="61"/>
      <point x="313" y="-20"/>
      <point x="512" y="-20" type="curve" smooth="yes"/>
      <point x="759" y="-20"/>
      <point x="903" y="105"/>
      <point x="903" y="321" type="curve" smooth="yes"/>
      <point x="903" y="493"/>
      <point x="819" y="590"/>
      <point x="626" y="641" type="curve" smooth="yes"/>
      <point x="546" y="663" type="line" smooth="yes"/>
      <point x="406" y="701"/>
      <point x="373" y="737"/>
      <point x="373" y="804" type="curve" smooth="yes"/>
      <point x="373" y="869"/>
      <point x="427" y="917"/>
      <point x="548" y="917" type="curve" smooth="yes"/>
      <point x="644" y="917"/>
      <point x="725" y="888"/>
      <point x="781" y="862" type="curve"/>
      <point x="811" y="862" type="line"/>
      <point x="866" y="1021" type="line"/>
      <point x="760" y="1075"/>
      <point x="649" y="1102"/>
      <point x="521" y="1102" type="curve" smooth="yes"/>
      <point x="304" y="1102"/>
      <point x="148" y="985"/>
      <point x="148" y="788" type="curve"/>
      <point x="149" y="624"/>
      <point x="234" y="530"/>
      <point x="419" y="480" type="curve" smooth="yes"/>
      <point x="523" y="453" type="line" smooth="yes"/>
      <point x="648" y="420"/>
      <point x="682" y="388"/>
      <point x="677" y="292" type="curve" smooth="yes"/>
      <point x="673" y="211"/>
      <point x="616" y="163"/>
      <point x="507" y="163" type="curve" smooth="yes"/>
      <point x="416" y="163"/>
      <point x="294" y="207"/>
      <point x="231" y="237" type="curve"/>
    </contour>
    <contour>
      <point x="500" y="0" type="move" name="bot"/>
    </contour>
    <contour>
      <point x="523" y="1082" type="move" name="top"/>
    </contour>
  </outline>
</glyph>
<glyph name="t" format="1">
  <advance width="891.500"/>
  <unicode hex="0074"/>
  <outline>
    <contour>
      <point x="305" y="1346" type="line"/>
      <point x="234" y="1034" type="line"/>
      <point x="307" y="1082" type="line"/>
      <point x="78" y="1069" type="line"/>
      <point x="64" y="921" type="line"/>
      <point x="272" y="921" type="line"/>
      <point x="231" y="970" type="line"/>
      <point x="231" y="394" type="line" smooth="yes"/>
      <point x="231" y="122"/>
      <point x="335" y="-14"/>
      <point x="603" y="-14" type="curve" smooth="yes"/>
      <point x="733" y="-14"/>
      <point x="817" y="18"/>
      <point x="817" y="18" type="curve"/>
      <point x="817" y="189" type="line"/>
      <point x="817" y="189"/>
      <point x="710" y="176"/>
      <point x="656" y="176" type="curve" smooth="yes"/>
      <point x="552" y="176"/>
      <point x="485" y="211"/>
      <point x="485" y="383" type="curve" smooth="yes"/>
      <point x="485" y="969" type="line"/>
      <point x="444" y="920" type="line"/>
      <point x="778" y="920" type="line"/>
      <point x="778" y="1082" type="line"/>
      <point x="443" y="1082" type="line"/>
      <point x="485" y="1027" type="line"/>
      <point x="485" y="1347" type="line"/>
    </contour>
    <contour>
      <point x="396" y="1270" type="move" name="caron.alt"/>
    </contour>
    <contour>
      <point x="399" y="589" type="move" name="mid"/>
    </contour>
    <contour>
      <point x="373" y="1344" type="move" name="top"/>
    </contour>
    <contour>
      <point x="522" y="0" type="move" name="bot"/>
    </contour>
  </outline>
</glyph>
<glyph name="u" format="1">
  <advance width="1257.700"/>
  <unicode hex="0075"/>
  <outline>
    <contour>
      <point x="851" y="1082" type="line"/>
      <point x="851" y="238" type="line"/>
      <point x="877" y="377" type="line"/>
      <point x="862" y="339"/>
      <point x="790" y="175"/>
      <point x="601" y="175" type="curve" smooth="yes"/>
      <point x="452" y="175"/>
      <point x="398" y="266"/>
      <point x="398" y="425" type="curve" smooth="yes"/>
      <point x="398" y="1082" type="line"/>
      <point x="144" y="1082" type="line"/>
      <point x="144" y="402" type="line" smooth="yes"/>
      <point x="144" y="125"/>
      <point x="272" y="-20"/>
      <point x="518" y="-20" type="curve" smooth="yes"/>
      <point x="707" y="-20"/>
      <point x="837" y="33"/>
      <point x="917" y="195" type="curve"/>
      <point x="864" y="195" type="line"/>
      <point x="900" y="0" type="line"/>
      <point x="1105" y="0" type="line"/>
      <point x="1105" y="1082" type="line"/>
    </contour>
    <contour>
      <point x="629" y="0" type="move" name="bot"/>
    </contour>
    <contour>
      <point x="1008" y="0" type="move" name="ogonek"/>
    </contour>
    <contour>
      <point x="629" y="1082" type="move" name="top"/>
    </contour>
  </outline>
</glyph>
<glyph name="v" format="1">
  <advance width="1135.800"/>
  <unicode hex="0076"/>
  <outline>
    <contour>
      <point x="456" y="0" type="line"/>
      <point x="701" y="0" type="line"/>
      <point x="1096" y="1082" type="line"/>
      <point x="831" y="1082" type="line"/>
      <point x="642" y="489" type="line"/>
      <point x="560" y="201" type="line"/>
      <point x="606" y="201" type="line"/>
      <point x="511" y="490" type="line"/>
      <point x="309" y="1082" type="line"/>
      <point x="40" y="1082" type="line"/>
    </contour>
  </outline>
</glyph>
<glyph name="w" format="1">
  <advance width="1643.700"/>
  <unicode hex="0077"/>
  <outline>
    <contour>
      <point x="1358" y="1082" type="line"/>
      <point x="1143" y="229" type="line"/>
      <point x="1182" y="229" type="line"/>
      <point x="952" y="1082" type="line"/>
      <point x="699" y="1082" type="line"/>
      <point x="462" y="229" type="line"/>
      <point x="497" y="229" type="line"/>
      <point x="289" y="1082" type="line"/>
      <point x="42" y="1082" type="line"/>
      <point x="347" y="0" type="line"/>
      <point x="589" y="0" type="line"/>
      <point x="845" y="899" type="line"/>
      <point x="800" y="899" type="line"/>
      <point x="1046" y="0" type="line"/>
      <point x="1288" y="0" type="line"/>
      <point x="1601" y="1082" type="line"/>
    </contour>
    <contour>
      <point x="822" y="0" type="move" name="bot"/>
    </contour>
    <contour>
      <point x="819" y="1082" type="move" name="top"/>
    </contour>
  </outline>
</glyph>
<glyph name="x" format="1">
  <advance width="1142"/>
  <unicode hex="0078"/>
  <outline>
    <contour>
      <point x="801" y="1082" type="line"/>
      <point x="547" y="697" type="line"/>
      <point x="441" y="599" type="line"/>
      <point x="39" y="0" type="line"/>
      <point x="323" y="0" type="line"/>
      <point x="589" y="409" type="line"/>
      <point x="690" y="502" type="line"/>
      <point x="1085" y="1082" type="line"/>
    </contour>
    <contour>
      <point x="56" y="1082" type="line"/>
      <point x="810" y="0" type="line"/>
      <point x="1099" y="0" type="line"/>
      <point x="342" y="1082" type="line"/>
    </contour>
  </outline>
</glyph>
<glyph name="y" format="1">
  <advance width="1121.800"/>
  <unicode hex="0079"/>
  <outline>
    <contour>
      <point x="1106" y="1082" type="line"/>
      <point x="842" y="1082" type="line"/>
      <point x="571" y="308" type="line"/>
      <point x="511" y="185" type="line"/>
      <point x="335" y="-363" type="line"/>
      <point x="567" y="-396" type="line"/>
    </contour>
    <contour>
      <point x="656" y="262" type="line"/>
      <point x="301" y="1082" type="line"/>
      <point x="39" y="1082" type="line"/>
      <point x="537" y="-26" type="line"/>
    </contour>
    <contour>
      <point x="561" y="0" type="move" name="bot"/>
    </contour>
    <contour>
      <point x="582" y="1082" type="move" name="top"/>
    </contour>
  </outline>
</glyph>
<glyph name="z" format="1">
  <advance width="1004.300"/>
  <unicode hex="007A"/>
  <outline>
    <contour>
      <point x="136" y="1082" type="line"/>
      <point x="136" y="900" type="line"/>
      <point x="682" y="900" type="line"/>
      <point x="656" y="964" type="line"/>
      <point x="113" y="158" type="line"/>
      <point x="113" y="0" type="line"/>
      <point x="909" y="0" type="line"/>
      <point x="909" y="190" type="line"/>
      <point x="349" y="190" type="line"/>
      <point x="368" y="117" type="line"/>
      <point x="893" y="907" type="line"/>
      <point x="893" y="1082" type="line"/>
    </contour>
    <contour>
      <point x="502" y="0" type="move" name="bot"/>
    </contour>
    <contour>
      <point x="522" y="1082" type="move" name="top"/>
    </contour>
  </outline>
</glyph>
<glyph name="braceright" format="1">
  <advance width="702.300"/>
  <unicode hex="007D"/>
  <outline>
    <contour>
      <point x="88" y="-259" type="line"/>
      <point x="352" y="-259"/>
      <point x="484" y="-195"/>
      <point x="484" y="24" type="curve" smooth="yes"/>
      <point x="484" y="286" type="line" smooth="yes"/>
      <point x="484" y="435"/>
      <point x="521" y="491"/>
      <point x="687" y="491" type="curve"/>
      <point x="687" y="700" type="line"/>
      <point x="515" y="702"/>
      <point x="484" y="754"/>
      <point x="484" y="901" type="curve" smooth="yes"/>
      <point x="484" y="1158" type="line" smooth="yes"/>
      <point x="484" y="1390"/>
      <point x="352" y="1458"/>
      <point x="88" y="1458" type="curve"/>
      <point x="88" y="1261" type="line"/>
      <point x="223" y="1259"/>
      <point x="244" y="1223"/>
      <point x="244" y="1096" type="curve" smooth="yes"/>
      <point x="244" y="843" type="line"/>
      <point x="246" y="718"/>
      <point x="302" y="638"/>
      <point x="421" y="595" type="curve"/>
      <point x="302" y="551"/>
      <point x="244" y="481"/>
      <point x="244" y="354" type="curve" smooth="yes"/>
      <point x="244" y="98" type="line" smooth="yes"/>
      <point x="244" y="-29"/>
      <point x="221" y="-62"/>
      <point x="88" y="-64" type="curve"/>
    </contour>
  </outline>
</glyph>
<glyph name="asciitilde" format="1">
  <advance width="1145.600"/>
  <unicode hex="007E"/>
  <outline>
    <contour>
      <point x="836" y="662" type="curve" smooth="yes"/>
      <point x="783" y="662"/>
      <point x="719" y="686"/>
      <point x="634" y="724" type="curve" smooth="yes"/>
      <point x="551" y="760"/>
      <point x="471" y="787"/>
      <point x="390" y="787" type="curve" smooth="yes"/>
      <point x="247" y="787"/>
      <point x="164" y="700"/>
      <point x="116" y="598" type="curve"/>
      <point x="197" y="460" type="line"/>
      <point x="236" y="533"/>
      <point x="298" y="598"/>
      <point x="381" y="598" type="curve" smooth="yes"/>
      <point x="449" y="598"/>
      <point x="506" y="573"/>
      <point x="579" y="538" type="curve"/>
      <point x="667" y="499"/>
      <point x="736" y="471"/>
      <point x="823" y="471" type="curve" smooth="yes"/>
      <point x="960" y="471"/>
      <point x="1074" y="560"/>
      <point x="1124" y="658" type="curve"/>
      <point x="1047" y="791" type="line"/>
      <point x="974" y="704"/>
      <point x="908" y="662"/>
    </contour>
  </outline>
</glyph>
<glyph name="cent" format="1">
  <advance width="1014"/>
  <unicode hex="00A2"/>
  <outline>
    <contour>
      <point x="578" y="1322" type="line"/>
      <point x="567" y="998" type="line"/>
      <point x="684" y="998" type="line"/>
      <point x="684" y="1322" type="line"/>
    </contour>
    <contour>
      <point x="567" y="82" type="line"/>
      <point x="567" y="-242" type="line"/>
      <point x="674" y="-242" type="line"/>
      <point x="684" y="82" type="line"/>
    </contour>
    <component base="c"/>
  </outline>
</glyph>
<glyph name="yen" format="1">
  <advance width="1319"/>
  <unicode hex="00A5"/>
  <outline>
    <contour>
      <point x="210" y="391" type="line"/>
      <point x="210" y="227" type="line"/>
      <point x="1105" y="227" type="line"/>
      <point x="1105" y="391" type="line"/>
    </contour>
    <contour>
      <point x="1105" y="512" type="line"/>
      <point x="1105" y="667" type="line"/>
      <point x="210" y="667" type="line"/>
      <point x="210" y="512" type="line"/>
    </contour>
    <component base="Y"/>
  </outline>
</glyph>
<glyph name="section" format="1">
  <advance width="991"/>
  <unicode hex="00A7"/>
  <outline>
    <contour>
      <point x="469" y="-175" type="curve"/>
      <point x="695" y="-175"/>
      <point x="915" y="-72"/>
      <point x="915" y="173" type="curve"/>
      <point x="915" y="275"/>
      <point x="874" y="355"/>
      <point x="804" y="413" type="curve"/>
      <point x="889" y="472"/>
      <point x="923" y="557"/>
      <point x="923" y="667" type="curve"/>
      <point x="923" y="859"/>
      <point x="804" y="922"/>
      <point x="585" y="1011" type="curve"/>
      <point x="387" y="1089"/>
      <point x="307" y="1111"/>
      <point x="307" y="1225" type="curve"/>
      <point x="307" y="1318"/>
      <point x="409" y="1361"/>
      <point x="541" y="1361" type="curve"/>
      <point x="650" y="1361"/>
      <point x="757" y="1333"/>
      <point x="829" y="1284" type="curve"/>
      <point x="895" y="1462" type="line"/>
      <point x="794" y="1514"/>
      <point x="660" y="1545"/>
      <point x="539" y="1545" type="curve"/>
      <point x="317" y="1545"/>
      <point x="103" y="1448"/>
      <point x="103" y="1216" type="curve"/>
      <point x="103" y="1103"/>
      <point x="145" y="1028"/>
      <point x="224" y="969" type="curve"/>
      <point x="146" y="910"/>
      <point x="92" y="828"/>
      <point x="92" y="715" type="curve"/>
      <point x="92" y="518"/>
      <point x="254" y="443"/>
      <point x="465" y="369" type="curve"/>
      <point x="663" y="302"/>
      <point x="715" y="265"/>
      <point x="715" y="180" type="curve"/>
      <point x="715" y="58"/>
      <point x="611" y="7"/>
      <point x="474" y="7" type="curve"/>
      <point x="358" y="7"/>
      <point x="238" y="42"/>
      <point x="157" y="100" type="curve"/>
      <point x="86" y="-82" type="line"/>
      <point x="193" y="-142"/>
      <point x="338" y="-175"/>
    </contour>
    <contour>
      <point x="630" y="512" type="curve"/>
      <point x="528" y="552" type="line"/>
      <point x="358" y="620"/>
      <point x="294" y="637"/>
      <point x="294" y="720" type="curve"/>
      <point x="294" y="798"/>
      <point x="342" y="858"/>
      <point x="390" y="884" type="curve"/>
      <point x="509" y="837" type="line"/>
      <point x="649" y="782"/>
      <point x="723" y="751"/>
      <point x="723" y="679" type="curve"/>
      <point x="723" y="575"/>
      <point x="685" y="542"/>
    </contour>
  </outline>
</glyph>
<glyph name="dieresis" format="1">
  <advance width="687.700"/>
  <unicode hex="00A8"/>
  <outline>
    <contour>
      <point x="130" y="1193" type="curve" smooth="yes"/>
      <point x="209" y="1193"/>
      <point x="254" y="1253"/>
      <point x="254" y="1317" type="curve" smooth="yes"/>
      <point x="254" y="1382"/>
      <point x="209" y="1443"/>
      <point x="130" y="1443" type="curve" smooth="yes"/>
      <point x="50" y="1443"/>
      <point x="5" y="1382"/>
      <point x="5" y="1317" type="curve" smooth="yes"/>
      <point x="5" y="1253"/>
      <point x="52" y="1193"/>
    </contour>
    <contour>
      <point x="559" y="1193" type="curve" smooth="yes"/>
      <point x="638" y="1193"/>
      <point x="683" y="1253"/>
      <point x="683" y="1317" type="curve" smooth="yes"/>
      <point x="683" y="1382"/>
      <point x="638" y="1443"/>
      <point x="559" y="1443" type="curve" smooth="yes"/>
      <point x="479" y="1443"/>
      <point x="434" y="1382"/>
      <point x="434" y="1317" type="curve" smooth="yes"/>
      <point x="434" y="1253"/>
      <point x="481" y="1193"/>
    </contour>
    <contour>
      <point x="344" y="1082" type="move" name="_top"/>
    </contour>
  </outline>
</glyph>
<glyph name="copyright" format="1">
  <advance width="1570.600"/>
  <unicode hex="00A9"/>
  <outline>
    <contour>
      <point x="776" y="246" type="curve" smooth="yes"/>
      <point x="888" y="246"/>
      <point x="988" y="275"/>
      <point x="1066" y="325" type="curve"/>
      <point x="1017" y="435" type="line"/>
      <point x="948" y="393"/>
      <point x="859" y="373"/>
      <point x="789" y="373" type="curve" smooth="yes"/>
      <point x="604" y="373"/>
      <point x="483" y="508"/>
      <point x="483" y="718" type="curve" smooth="yes"/>
      <point x="483" y="927"/>
      <point x="603" y="1067"/>
      <point x="784" y="1067" type="curve" smooth="yes"/>
      <point x="854" y="1067"/>
      <point x="942" y="1046"/>
      <point x="1011" y="1004" type="curve"/>
      <point x="1065" y="1114" type="line"/>
      <point x="985" y="1168"/>
      <point x="887" y="1194"/>
      <point x="774" y="1194" type="curve" smooth="yes"/>
      <point x="515" y="1194"/>
      <point x="331" y="983"/>
      <point x="331" y="717" type="curve" smooth="yes"/>
      <point x="331" y="443"/>
      <point x="522" y="246"/>
    </contour>
    <contour>
      <point x="784" y="105" type="curve" smooth="yes"/>
      <point x="436" y="105"/>
      <point x="170" y="373"/>
      <point x="170" y="725" type="curve" smooth="yes"/>
      <point x="170" y="1076"/>
      <point x="435" y="1339"/>
      <point x="783" y="1339" type="curve" smooth="yes"/>
      <point x="1134" y="1339"/>
      <point x="1402" y="1076"/>
      <point x="1402" y="725" type="curve" smooth="yes"/>
      <point x="1402" y="373"/>
      <point x="1136" y="105"/>
    </contour>
    <contour>
      <point x="784" y="-4" type="curve" smooth="yes"/>
      <point x="1181" y="-4"/>
      <point x="1527" y="290"/>
      <point x="1527" y="725" type="curve" smooth="yes"/>
      <point x="1527" y="1160"/>
      <point x="1178" y="1450"/>
      <point x="782" y="1450" type="curve" smooth="yes"/>
      <point x="389" y="1450"/>
      <point x="44" y="1161"/>
      <point x="44" y="725" type="curve" smooth="yes"/>
      <point x="44" y="290"/>
      <point x="391" y="-4"/>
    </contour>
  </outline>
</glyph>
<glyph name="logicalnot" format="1">
  <advance width="1136.600"/>
  <unicode hex="00AC"/>
  <outline>
    <contour>
      <point x="88" y="807" type="line"/>
      <point x="88" y="617" type="line"/>
      <point x="863" y="617" type="line"/>
      <point x="863" y="242" type="line"/>
      <point x="1052" y="242" type="line"/>
      <point x="1052" y="807" type="line"/>
    </contour>
  </outline>
</glyph>
<glyph name="registered" format="1">
  <advance width="1563.400"/>
  <unicode hex="00AE"/>
  <outline>
    <contour>
      <point x="386" y="1450"/>
      <point x="42" y="1154"/>
      <point x="42" y="719" type="curve" smooth="yes"/>
      <point x="42" y="284"/>
      <point x="387" y="-10"/>
      <point x="780" y="-10" type="curve" smooth="yes"/>
      <point x="1175" y="-10"/>
      <point x="1521" y="284"/>
      <point x="1521" y="719" type="curve" smooth="yes"/>
      <point x="1521" y="1154"/>
      <point x="1174" y="1450"/>
      <point x="780" y="1450" type="curve" smooth="yes"/>
    </contour>
    <contour>
      <point x="1130" y="1339"/>
      <point x="1395" y="1070"/>
      <point x="1395" y="718" type="curve" smooth="yes"/>
      <point x="1395" y="366"/>
      <point x="1130" y="99"/>
      <point x="780" y="99" type="curve" smooth="yes"/>
      <point x="433" y="99"/>
      <point x="168" y="366"/>
      <point x="168" y="719" type="curve" smooth="yes"/>
      <point x="168" y="1070"/>
      <point x="433" y="1339"/>
      <point x="780" y="1339" type="curve" smooth="yes"/>
    </contour>
    <contour>
      <point x="483" y="1179" type="line"/>
      <point x="483" y="261" type="line"/>
      <point x="635" y="261" type="line"/>
      <point x="635" y="657" type="line"/>
      <point x="776" y="657" type="line"/>
      <point x="804" y="628"/>
      <point x="988" y="261"/>
      <point x="988" y="261" type="curve"/>
      <point x="1158" y="261" type="line"/>
      <point x="1158" y="261"/>
      <point x="974" y="610"/>
      <point x="923" y="678" type="curve"/>
      <point x="1063" y="711"/>
      <point x="1115" y="792"/>
      <point x="1115" y="926" type="curve" smooth="yes"/>
      <point x="1115" y="1108"/>
      <point x="988" y="1179"/>
      <point x="789" y="1179" type="curve" smooth="yes"/>
    </contour>
    <contour>
      <point x="899" y="1046"/>
      <point x="964" y="1039"/>
      <point x="964" y="923" type="curve" smooth="yes"/>
      <point x="964" y="811"/>
      <point x="896" y="790"/>
      <point x="764" y="790" type="curve" smooth="yes"/>
      <point x="634" y="790" type="line"/>
      <point x="634" y="1046" type="line"/>
      <point x="752" y="1046" type="line" smooth="yes"/>
    </contour>
  </outline>
</glyph>
<glyph name="degree" format="1">
  <advance width="757.600"/>
  <unicode hex="00B0"/>
  <outline>
    <contour>
      <point x="379" y="1001" type="curve" smooth="yes"/>
      <point x="300" y="1001"/>
      <point x="228" y="1059"/>
      <point x="228" y="1158" type="curve" smooth="yes"/>
      <point x="228" y="1254"/>
      <point x="300" y="1310"/>
      <point x="380" y="1310" type="curve" smooth="yes"/>
      <point x="457" y="1310"/>
      <point x="528" y="1254"/>
      <point x="528" y="1158" type="curve" smooth="yes"/>
      <point x="528" y="1059"/>
      <point x="458" y="1001"/>
    </contour>
    <contour>
      <point x="379" y="867" type="curve" smooth="yes"/>
      <point x="570" y="867"/>
      <point x="683" y="1007"/>
      <point x="683" y="1159" type="curve" smooth="yes"/>
      <point x="683" y="1315"/>
      <point x="565" y="1443"/>
      <point x="379" y="1443" type="curve" smooth="yes"/>
      <point x="191" y="1443"/>
      <point x="75" y="1315"/>
      <point x="75" y="1159" type="curve" smooth="yes"/>
      <point x="75" y="1005"/>
      <point x="189" y="867"/>
    </contour>
  </outline>
</glyph>
<glyph name="plusminus" format="1">
  <advance width="1134.400"/>
  <unicode hex="00B1"/>
  <outline>
    <contour>
      <point x="470" y="1147" type="line"/>
      <point x="470" y="799" type="line"/>
      <point x="115" y="799" type="line"/>
      <point x="115" y="603" type="line"/>
      <point x="470" y="603" type="line"/>
      <point x="470" y="246" type="line"/>
      <point x="663" y="246" type="line"/>
      <point x="663" y="603" type="line"/>
      <point x="1016" y="603" type="line"/>
      <point x="1016" y="799" type="line"/>
      <point x="662" y="799" type="line"/>
      <point x="662" y="1147" type="line"/>
    </contour>
    <contour>
      <point x="112" y="176" type="line"/>
      <point x="112" y="0" type="line"/>
      <point x="1022" y="0" type="line"/>
      <point x="1022" y="176" type="line"/>
    </contour>
  </outline>
</glyph>
<glyph name="twosuperior" format="1">
  <advance width="850"/>
  <unicode hex="00B2"/>
  <outline>
    <contour>
      <point x="162" y="649" type="line"/>
      <point x="725" y="649" type="line"/>
      <point x="725" y="792" type="line"/>
      <point x="403" y="792" type="line"/>
      <point x="444.545" y="832.55"/>
      <point x="485.905" y="870.872"/>
      <point x="524.323" y="908.167" type="curve" smooth="yes"/>
      <point x="640.334" y="1020.79"/>
      <point x="729.522" y="1124.04"/>
      <point x="716" y="1251" type="curve" smooth="yes"/>
      <point x="699" y="1409"/>
      <point x="573" y="1483"/>
      <point x="418" y="1483" type="curve" smooth="yes"/>
      <point x="295" y="1483"/>
      <point x="171" y="1409"/>
      <point x="99" y="1300" type="curve"/>
      <point x="220" y="1201" type="line"/>
      <point x="284" y="1287"/>
      <point x="360" y="1320"/>
      <point x="413" y="1323" type="curve" smooth="yes"/>
      <point x="460" y="1326"/>
      <point x="520" y="1305"/>
      <point x="528" y="1229" type="curve" smooth="yes"/>
      <point x="534.527" y="1163.73"/>
      <point x="496.692" y="1111.14"/>
      <point x="410.108" y="1025.25" type="curve" smooth="yes"/>
      <point x="350.771" y="966.4"/>
      <point x="268.539" y="891.912"/>
      <point x="162" y="787" type="curve"/>
    </contour>
  </outline>
</glyph>
<glyph name="threesuperior" format="1">
  <advance width="796.800"/>
  <unicode hex="00B3"/>
  <outline>
    <contour>
      <point x="391" y="570" type="curve" smooth="yes"/>
      <point x="565" y="570"/>
      <point x="700" y="651"/>
      <point x="700" y="823" type="curve" smooth="yes"/>
      <point x="700" y="912"/>
      <point x="644" y="991"/>
      <point x="543" y="1018" type="curve"/>
      <point x="639" y="1050"/>
      <point x="681" y="1120"/>
      <point x="682" y="1207" type="curve"/>
      <point x="682" y="1371"/>
      <point x="556" y="1442"/>
      <point x="400" y="1442" type="curve" smooth="yes"/>
      <point x="305" y="1442"/>
      <point x="205" y="1410"/>
      <point x="141" y="1355" type="curve"/>
      <point x="197" y="1235" type="line"/>
      <point x="235" y="1264"/>
      <point x="316" y="1292"/>
      <point x="382" y="1292" type="curve" smooth="yes"/>
      <point x="450" y="1292"/>
      <point x="482" y="1251"/>
      <point x="482" y="1197" type="curve" smooth="yes"/>
      <point x="482" y="1119"/>
      <point x="443" y="1082"/>
      <point x="340" y="1082" type="curve" smooth="yes"/>
      <point x="257" y="1082" type="line"/>
      <point x="257" y="949" type="line"/>
      <point x="339" y="950" type="line"/>
      <point x="445" y="950"/>
      <point x="509" y="911"/>
      <point x="509" y="834" type="curve" smooth="yes"/>
      <point x="509" y="752"/>
      <point x="460" y="716"/>
      <point x="382" y="716" type="curve" smooth="yes"/>
      <point x="323" y="716"/>
      <point x="236" y="742"/>
      <point x="194" y="781" type="curve"/>
      <point x="136" y="650" type="line"/>
      <point x="206" y="598"/>
      <point x="307" y="570"/>
    </contour>
  </outline>
</glyph>
<glyph name="periodcentered" format="1">
  <advance width="398"/>
  <unicode hex="00B7"/>
  <outline>
    <contour>
      <point x="244" y="547" type="line"/>
      <point x="438" y="547" type="line"/>
      <point x="438" y="737" type="line"/>
      <point x="244" y="737" type="line"/>
    </contour>
    <contour>
      <point x="-1" y="637" type="move" name="_mid"/>
    </contour>
  </outline>
</glyph>
<glyph name="onesuperior" format="1">
  <advance width="778"/>
  <unicode hex="00B9"/>
  <outline>
    <contour>
      <point x="183" y="575" type="line"/>
      <point x="651" y="575" type="line"/>
      <point x="651" y="729" type="line"/>
      <point x="515" y="729" type="line"/>
      <point x="515" y="1432" type="line"/>
      <point x="368" y="1433" type="line"/>
      <point x="364" y="1429"/>
      <point x="173" y="1328"/>
      <point x="168" y="1327" type="curve"/>
      <point x="168" y="1162" type="line"/>
      <point x="174" y="1163"/>
      <point x="286" y="1216"/>
      <point x="322" y="1233" type="curve"/>
      <point x="322" y="729" type="line"/>
      <point x="183" y="729" type="line"/>
    </contour>
  </outline>
</glyph>
<glyph name="ordmasculine" format="1">
  <advance width="878"/>
  <unicode hex="00BA"/>
  <outline>
    <contour>
      <point x="226" y="1449"/>
      <point x="112" y="1327"/>
      <point x="112" y="1094" type="curve" smooth="yes"/>
      <point x="112" y="864"/>
      <point x="226" y="744"/>
      <point x="445" y="744" type="curve" smooth="yes"/>
      <point x="662" y="744"/>
      <point x="776" y="864"/>
      <point x="776" y="1094" type="curve" smooth="yes"/>
      <point x="776" y="1327"/>
      <point x="662" y="1449"/>
      <point x="445" y="1449" type="curve" smooth="yes"/>
    </contour>
    <contour>
      <point x="580" y="1345"/>
      <point x="650" y="1265"/>
      <point x="650" y="1094" type="curve" smooth="yes"/>
      <point x="650" y="939"/>
      <point x="580" y="849"/>
      <point x="445" y="849" type="curve" smooth="yes"/>
      <point x="314" y="849"/>
      <point x="246" y="939"/>
      <point x="246" y="1094" type="curve" smooth="yes"/>
      <point x="246" y="1265"/>
      <point x="314" y="1345"/>
      <point x="445" y="1345" type="curve" smooth="yes"/>
    </contour>
  </outline>
</glyph>
<glyph name="onequarter" format="1">
  <advance width="1612"/>
  <unicode hex="00BC"/>
  <outline>
    <contour>
      <point x="70" y="600" type="line"/>
      <point x="541" y="600" type="line"/>
      <point x="541" y="740" type="line"/>
      <point x="409" y="740" type="line"/>
      <point x="409" y="1456" type="line"/>
      <point x="267" y="1456" type="line"/>
      <point x="260" y="1452"/>
      <point x="59" y="1352"/>
      <point x="54" y="1350" type="curve"/>
      <point x="54" y="1195" type="line"/>
      <point x="59" y="1197"/>
      <point x="185" y="1257"/>
      <point x="221" y="1275" type="curve"/>
      <point x="221" y="740" type="line"/>
      <point x="70" y="740" type="line"/>
    </contour>
    <contour>
      <point x="1288" y="0" type="line"/>
      <point x="1472" y="0" type="line"/>
      <point x="1473" y="170" type="line"/>
      <point x="1585" y="170" type="line"/>
      <point x="1581" y="312" type="line"/>
      <point x="1474" y="312" type="line"/>
      <point x="1474" y="856" type="line"/>
      <point x="1278" y="856" type="line"/>
      <point x="904" y="312" type="line"/>
      <point x="904" y="170" type="line"/>
      <point x="1288" y="170" type="line"/>
    </contour>
    <contour>
      <point x="287" y="0" type="line"/>
      <point x="487" y="0" type="line"/>
      <point x="1427" y="1456" type="line"/>
      <point x="1241" y="1456" type="line"/>
    </contour>
    <contour>
      <point x="1055" y="312" type="line"/>
      <point x="1286" y="655" type="line"/>
      <point x="1286" y="312" type="line"/>
    </contour>
  </outline>
</glyph>
<glyph name="onehalf" format="1">
  <advance width="1710.500"/>
  <unicode hex="00BD"/>
  <outline>
    <contour>
      <point x="70" y="600" type="line"/>
      <point x="541" y="600" type="line"/>
      <point x="541" y="740" type="line"/>
      <point x="409" y="740" type="line"/>
      <point x="409" y="1456" type="line"/>
      <point x="267" y="1456" type="line"/>
      <point x="260" y="1452"/>
      <point x="59" y="1352"/>
      <point x="54" y="1350" type="curve"/>
      <point x="54" y="1195" type="line"/>
      <point x="59" y="1197"/>
      <point x="185" y="1257"/>
      <point x="221" y="1275" type="curve"/>
      <point x="221" y="740" type="line"/>
      <point x="70" y="740" type="line"/>
    </contour>
    <contour>
      <point x="1121" y="0" type="line"/>
      <point x="1657" y="0" type="line"/>
      <point x="1673" y="145" type="line"/>
      <point x="1348" y="145" type="line"/>
      <point x="1398.28" y="190.601"/>
      <point x="1441.69" y="229.613"/>
      <point x="1478.93" y="264.009" type="curve" smooth="yes"/>
      <point x="1624.62" y="398.573"/>
      <point x="1676" y="462.501"/>
      <point x="1676" y="574" type="curve" smooth="yes"/>
      <point x="1676" y="712"/>
      <point x="1600" y="858"/>
      <point x="1369" y="858" type="curve" smooth="yes"/>
      <point x="1258" y="858"/>
      <point x="1142" y="813"/>
      <point x="1071" y="729" type="curve"/>
      <point x="1152" y="609" type="line"/>
      <point x="1219" y="671"/>
      <point x="1294" y="699"/>
      <point x="1357" y="699" type="curve" smooth="yes"/>
      <point x="1458" y="699"/>
      <point x="1497" y="643"/>
      <point x="1497" y="569" type="curve" smooth="yes"/>
      <point x="1497" y="507.326"/>
      <point x="1460.33" y="459.982"/>
      <point x="1355.81" y="359.66" type="curve" smooth="yes"/>
      <point x="1299.33" y="305.449"/>
      <point x="1223.03" y="235.769"/>
      <point x="1122" y="140" type="curve"/>
    </contour>
    <contour>
      <point x="287" y="0" type="line"/>
      <point x="487" y="0" type="line"/>
      <point x="1427" y="1456" type="line"/>
      <point x="1241" y="1456" type="line"/>
    </contour>
  </outline>
</glyph>
<glyph name="threequarters" format="1">
  <advance width="1641.100"/>
  <unicode hex="00BE"/>
  <outline>
    <contour>
      <point x="300" y="592" type="curve" smooth="yes"/>
      <point x="461" y="592"/>
      <point x="607" y="674"/>
      <point x="607" y="867" type="curve" smooth="yes"/>
      <point x="607" y="983"/>
      <point x="529" y="1042"/>
      <point x="450" y="1065" type="curve"/>
      <point x="541" y="1085"/>
      <point x="588" y="1147"/>
      <point x="588" y="1252" type="curve" smooth="yes"/>
      <point x="588" y="1402"/>
      <point x="455" y="1466"/>
      <point x="306" y="1466" type="curve" smooth="yes"/>
      <point x="213" y="1466"/>
      <point x="115" y="1441"/>
      <point x="39" y="1396" type="curve"/>
      <point x="94" y="1270" type="line"/>
      <point x="153" y="1301"/>
      <point x="227" y="1320"/>
      <point x="289" y="1320" type="curve" smooth="yes"/>
      <point x="358" y="1320"/>
      <point x="412" y="1295"/>
      <point x="412" y="1235" type="curve" smooth="yes"/>
      <point x="412" y="1162"/>
      <point x="374" y="1115"/>
      <point x="271" y="1115" type="curve" smooth="yes"/>
      <point x="189" y="1115" type="line"/>
      <point x="189" y="982" type="line"/>
      <point x="271" y="983" type="line"/>
      <point x="376" y="983"/>
      <point x="434" y="940"/>
      <point x="434" y="869" type="curve" smooth="yes"/>
      <point x="434" y="772"/>
      <point x="366" y="735"/>
      <point x="282" y="735" type="curve" smooth="yes"/>
      <point x="221" y="735"/>
      <point x="153" y="754"/>
      <point x="96" y="784" type="curve"/>
      <point x="46" y="659" type="line"/>
      <point x="122" y="616"/>
      <point x="213" y="592"/>
    </contour>
    <contour>
      <point x="1306" y="0" type="line"/>
      <point x="1490" y="0" type="line"/>
      <point x="1491" y="170" type="line"/>
      <point x="1603" y="170" type="line"/>
      <point x="1599" y="312" type="line"/>
      <point x="1492" y="312" type="line"/>
      <point x="1492" y="856" type="line"/>
      <point x="1296" y="856" type="line"/>
      <point x="922" y="312" type="line"/>
      <point x="922" y="170" type="line"/>
      <point x="1306" y="170" type="line"/>
    </contour>
    <contour>
      <point x="289" y="0" type="line"/>
      <point x="489" y="0" type="line"/>
      <point x="1429" y="1456" type="line"/>
      <point x="1243" y="1456" type="line"/>
    </contour>
    <contour>
      <point x="1073" y="312" type="line"/>
      <point x="1304" y="655" type="line"/>
      <point x="1304" y="312" type="line"/>
    </contour>
  </outline>
</glyph>
<glyph name="AE" format="1">
  <advance width="2025"/>
  <unicode hex="00C6"/>
  <outline>
    <contour>
      <point x="904" y="1423" type="line"/>
      <point x="-10" y="0" type="line"/>
      <point x="285" y="0" type="line"/>
      <point x="530" y="394" type="line"/>
      <point x="979" y="394" type="line"/>
      <point x="979" y="0" type="line"/>
      <point x="1888" y="0" type="line"/>
      <point x="1905" y="214" type="line"/>
      <point x="1255" y="214" type="line"/>
      <point x="1255" y="641" type="line"/>
      <point x="1851" y="641" type="line"/>
      <point x="1851" y="850" type="line"/>
      <point x="1255" y="850" type="line"/>
      <point x="1255" y="1215" type="line"/>
      <point x="1885" y="1215" type="line"/>
      <point x="1895" y="1423" type="line"/>
    </contour>
    <contour>
      <point x="979" y="583" type="line"/>
      <point x="646" y="583" type="line"/>
      <point x="979" y="1155" type="line"/>
    </contour>
    <contour>
      <point x="1222" y="1423" type="move" name="top"/>
    </contour>
  </outline>
</glyph>
<glyph name="multiply" format="1">
  <advance width="1181.500"/>
  <unicode hex="00D7"/>
  <outline>
    <contour>
      <point x="183" y="850" type="line"/>
      <point x="453" y="566" type="line"/>
      <point x="182" y="285" type="line"/>
      <point x="313" y="145" type="line"/>
      <point x="591" y="427" type="line"/>
      <point x="867" y="146" type="line"/>
      <point x="1000" y="286" type="line"/>
      <point x="1000" y="286"/>
      <point x="788" y="505"/>
      <point x="727" y="566" type="curve"/>
      <point x="999" y="849" type="line"/>
      <point x="864" y="986" type="line"/>
      <point x="591" y="705" type="line"/>
      <point x="314" y="986" type="line"/>
    </contour>
  </outline>
</glyph>
<glyph name="germandbls" format="1">
  <advance width="1163.800"/>
  <unicode hex="00DF"/>
  <outline>
    <contour>
      <point x="827" y="-22" type="curve" smooth="yes"/>
      <point x="1043" y="-22"/>
      <point x="1182" y="97"/>
      <point x="1182" y="303" type="curve" smooth="yes"/>
      <point x="1182" y="604"/>
      <point x="831" y="662"/>
      <point x="831" y="761" type="curve" smooth="yes"/>
      <point x="831" y="834"/>
      <point x="1009" y="884"/>
      <point x="1009" y="1121" type="curve" smooth="yes"/>
      <point x="1009" y="1341"/>
      <point x="815" y="1443"/>
      <point x="589" y="1443" type="curve" smooth="yes"/>
      <point x="298" y="1443"/>
      <point x="143" y="1273"/>
      <point x="143" y="991" type="curve" smooth="yes"/>
      <point x="143" y="0" type="line"/>
      <point x="390" y="0" type="line"/>
      <point x="390" y="988" type="line" smooth="yes"/>
      <point x="390" y="1160"/>
      <point x="441" y="1256"/>
      <point x="603" y="1256" type="curve" smooth="yes"/>
      <point x="713" y="1256"/>
      <point x="783" y="1200"/>
      <point x="783" y="1114" type="curve" smooth="yes"/>
      <point x="783" y="946"/>
      <point x="589" y="898"/>
      <point x="589" y="735" type="curve" smooth="yes"/>
      <point x="589" y="550"/>
      <point x="932" y="492"/>
      <point x="932" y="310" type="curve" smooth="yes"/>
      <point x="932" y="209"/>
      <point x="865" y="171"/>
      <point x="778" y="171" type="curve" smooth="yes"/>
      <point x="696" y="171"/>
      <point x="607" y="201"/>
      <point x="564" y="224" type="curve"/>
      <point x="505" y="48" type="line"/>
      <point x="618" y="3"/>
      <point x="729" y="-22"/>
    </contour>
  </outline>
</glyph>
<glyph name="eth" format="1">
  <advance width="1099.200"/>
  <unicode hex="00F0"/>
  <outline>
    <contour>
      <point x="164" y="1437" type="line"/>
      <point x="362" y="1243" type="line"/>
      <point x="188" y="1174" type="line"/>
      <point x="250" y="1007" type="line"/>
      <point x="487" y="1100" type="line"/>
      <point x="542" y="1044"/>
      <point x="643" y="935"/>
      <point x="685" y="878" type="curve"/>
      <point x="645" y="893"/>
      <point x="585" y="911"/>
      <point x="531" y="911" type="curve" smooth="yes"/>
      <point x="250" y="911"/>
      <point x="60" y="730"/>
      <point x="60" y="457" type="curve" smooth="yes"/>
      <point x="60" y="181"/>
      <point x="263" y="-19"/>
      <point x="570" y="-19" type="curve" smooth="yes"/>
      <point x="883" y="-19"/>
      <point x="1077" y="159"/>
      <point x="1077" y="449" type="curve"/>
      <point x="1076" y="588"/>
      <point x="1037" y="714"/>
      <point x="980" y="813" type="curve"/>
      <point x="905" y="938"/>
      <point x="802" y="1052"/>
      <point x="684" y="1184" type="curve"/>
      <point x="888" y="1264" type="line"/>
      <point x="824" y="1433" type="line"/>
      <point x="563" y="1328" type="line"/>
      <point x="451" y="1437" type="line"/>
    </contour>
    <contour>
      <point x="855" y="456" type="curve" smooth="yes"/>
      <point x="855" y="286"/>
      <point x="755" y="175"/>
      <point x="578" y="175" type="curve" smooth="yes"/>
      <point x="396" y="175"/>
      <point x="293" y="297"/>
      <point x="293" y="458" type="curve" smooth="yes"/>
      <point x="293" y="627"/>
      <point x="393" y="737"/>
      <point x="571" y="737" type="curve" smooth="yes"/>
      <point x="752" y="737"/>
      <point x="855" y="619"/>
    </contour>
  </outline>
</glyph>
<glyph name="divide" format="1">
  <advance width="1261.200"/>
  <unicode hex="00F7"/>
  <outline>
    <contour>
      <point x="117" y="658" type="line"/>
      <point x="117" y="470" type="line"/>
      <point x="1142" y="470" type="line"/>
      <point x="1142" y="658" type="line"/>
    </contour>
    <contour>
      <point x="500" y="284" type="line"/>
      <point x="500" y="21" type="line"/>
      <point x="761" y="21" type="line"/>
      <point x="761" y="284" type="line"/>
    </contour>
    <contour>
      <point x="500" y="1095" type="line"/>
      <point x="500" y="842" type="line"/>
      <point x="768" y="842" type="line"/>
      <point x="768" y="1095" type="line"/>
    </contour>
  </outline>
</glyph>
<glyph name="thorn" format="1">
  <advance width="1242"/>
  <unicode hex="00FE"/>
  <outline>
    <contour>
      <point x="154" y="295" type="line"/>
      <point x="154" y="-395" type="line"/>
      <point x="409" y="-395" type="line"/>
      <point x="409" y="295" type="line"/>
    </contour>
    <component base="b"/>
  </outline>
</glyph>
<glyph name="kgreenlandic" format="1">
  <advance width="1167"/>
  <unicode hex="0138"/>
  <outline>
    <contour>
      <point x="154" y="0" type="line"/>
      <point x="408" y="0" type="line"/>
      <point x="408" y="450" type="line"/>
      <point x="348" y="323" type="line"/>
      <point x="546" y="510" type="line"/>
      <point x="471" y="510" type="line"/>
      <point x="848" y="0" type="line"/>
      <point x="1138" y="0" type="line"/>
      <point x="1138" y="12" type="line"/>
      <point x="661" y="651" type="line"/>
      <point x="661" y="537" type="line"/>
      <point x="1114" y="1071" type="line"/>
      <point x="1114" y="1082" type="line"/>
      <point x="805" y="1082" type="line"/>
      <point x="358" y="556" type="line"/>
      <point x="401" y="556" type="line"/>
      <point x="408" y="828" type="line"/>
      <point x="408" y="1082" type="line"/>
      <point x="154" y="1082" type="line"/>
    </contour>
  </outline>
</glyph>
<glyph name="eng" format="1">
  <advance width="1259"/>
  <unicode hex="014B"/>
  <outline>
    <contour>
      <point x="862" y="147" type="line"/>
      <point x="862" y="-16" type="line" smooth="yes"/>
      <point x="862" y="-207"/>
      <point x="831" y="-226"/>
      <point x="640" y="-226" type="curve"/>
      <point x="664" y="-420" type="line"/>
      <point x="1040" y="-420"/>
      <point x="1115" y="-285"/>
      <point x="1116" y="-6" type="curve"/>
      <point x="1116" y="147" type="line"/>
    </contour>
    <component base="n"/>
  </outline>
</glyph>
<glyph name="OE" format="1">
  <advance width="2302"/>
  <unicode hex="0152"/>
  <outline>
    <contour>
      <point x="435" y="1441"/>
      <point x="126" y="1167"/>
      <point x="126" y="709" type="curve" smooth="yes"/>
      <point x="126" y="257"/>
      <point x="432" y="-19"/>
      <point x="820" y="-19" type="curve" smooth="yes"/>
      <point x="983" y="-19"/>
      <point x="1165" y="33"/>
      <point x="1248" y="151" type="curve"/>
      <point x="1248" y="0" type="line"/>
      <point x="2165" y="0" type="line"/>
      <point x="2182" y="214" type="line"/>
      <point x="1532" y="214" type="line"/>
      <point x="1532" y="641" type="line"/>
      <point x="2129" y="641" type="line"/>
      <point x="2129" y="850" type="line"/>
      <point x="1532" y="850" type="line"/>
      <point x="1532" y="1215" type="line"/>
      <point x="2162" y="1215" type="line"/>
      <point x="2173" y="1423" type="line"/>
      <point x="1248" y="1423" type="line"/>
      <point x="1248" y="1270" type="line"/>
      <point x="1167" y="1382"/>
      <point x="982" y="1441"/>
      <point x="820" y="1441" type="curve" smooth="yes"/>
    </contour>
    <contour>
      <point x="1082" y="1215"/>
      <point x="1246" y="1010"/>
      <point x="1246" y="708" type="curve" smooth="yes"/>
      <point x="1246" y="411"/>
      <point x="1084" y="206"/>
      <point x="830" y="206" type="curve" smooth="yes"/>
      <point x="575" y="206"/>
      <point x="411" y="411"/>
      <point x="411" y="708" type="curve" smooth="yes"/>
      <point x="411" y="1010"/>
      <point x="577" y="1215"/>
      <point x="830" y="1215" type="curve" smooth="yes"/>
    </contour>
    <contour>
      <point x="0" y="0" type="move" name="ogonek"/>
    </contour>
  </outline>
</glyph>
<glyph name="oe" format="1">
  <advance width="1980"/>
  <unicode hex="0153"/>
  <outline>
    <contour>
      <point x="1783" y="238" type="line"/>
      <point x="1723" y="212"/>
      <point x="1615" y="171"/>
      <point x="1474" y="171" type="curve" smooth="yes"/>
      <point x="1300" y="171"/>
      <point x="1165" y="265"/>
      <point x="1149" y="474" type="curve"/>
      <point x="1867" y="474" type="line"/>
      <point x="1867" y="474"/>
      <point x="1875" y="568"/>
      <point x="1875" y="585" type="curve" smooth="yes"/>
      <point x="1875" y="893"/>
      <point x="1703" y="1103"/>
      <point x="1413" y="1102" type="curve" smooth="yes"/>
      <point x="1174" y="1101"/>
      <point x="1058" y="962"/>
      <point x="1021" y="869" type="curve"/>
      <point x="978" y="966"/>
      <point x="871" y="1102"/>
      <point x="623" y="1102" type="curve" smooth="yes"/>
      <point x="302" y="1102"/>
      <point x="102" y="881"/>
      <point x="102" y="537" type="curve" smooth="yes"/>
      <point x="102" y="201"/>
      <point x="314" y="-19"/>
      <point x="623" y="-19" type="curve" smooth="yes"/>
      <point x="875" y="-19"/>
      <point x="969" y="110"/>
      <point x="1023" y="184" type="curve"/>
      <point x="1080" y="103"/>
      <point x="1192" y="-20"/>
      <point x="1450" y="-20" type="curve" smooth="yes"/>
      <point x="1613" y="-20"/>
      <point x="1745" y="10"/>
      <point x="1846" y="73" type="curve"/>
      <point x="1811" y="238" type="line"/>
    </contour>
    <contour>
      <point x="890" y="301"/>
      <point x="791" y="176"/>
      <point x="623" y="176" type="curve" smooth="yes"/>
      <point x="455" y="176"/>
      <point x="356" y="303"/>
      <point x="356" y="536" type="curve" smooth="yes"/>
      <point x="356" y="780"/>
      <point x="458" y="908"/>
      <point x="623" y="908" type="curve" smooth="yes"/>
      <point x="792" y="908"/>
      <point x="890" y="780"/>
      <point x="890" y="536" type="curve" smooth="yes"/>
    </contour>
    <contour>
      <point x="1155" y="638" type="line"/>
      <point x="1174" y="832"/>
      <point x="1305" y="917"/>
      <point x="1415" y="917" type="curve" smooth="yes"/>
      <point x="1538" y="917"/>
      <point x="1622" y="830"/>
      <point x="1636" y="638" type="curve"/>
    </contour>
    <contour>
      <point x="0" y="0" type="move" name="ogonek"/>
    </contour>
  </outline>
</glyph>
<glyph name="dotlessj" format="1">
  <advance width="614"/>
  <unicode hex="0237"/>
  <outline>
    <contour>
      <point x="214" y="1082" type="line"/>
      <point x="214" y="9" type="line" smooth="yes"/>
      <point x="214" y="-148"/>
      <point x="201" y="-198"/>
      <point x="52" y="-198" type="curve" smooth="yes"/>
      <point x="-10" y="-198" type="line"/>
      <point x="18" y="-391" type="line"/>
      <point x="80" y="-391" type="line" smooth="yes"/>
      <point x="398" y="-391"/>
      <point x="466" y="-251"/>
      <point x="466" y="37" type="curve" smooth="yes"/>
      <point x="466" y="1082" type="line"/>
    </contour>
    <contour>
      <point x="336" y="1081" type="move" name="top"/>
    </contour>
  </outline>
</glyph>
<glyph name="apostrophemod" format="1">
  <advance width="600"/>
  <unicode hex="02BC"/>
  <outline>
    <contour>
      <point x="52" y="1193" type="line"/>
      <point x="197" y="1193" type="line"/>
      <point x="263" y="1689" type="line"/>
      <point x="62" y="1689" type="line"/>
    </contour>
    <contour>
      <point x="195" y="1066" type="move" name="_caron.alt"/>
    </contour>
  </outline>
</glyph>
<glyph name="dotaccent" format="1">
  <advance width="458.500"/>
  <unicode hex="02D9"/>
  <outline>
    <contour>
      <point x="373" y="1388" type="curve" smooth="yes"/>
      <point x="373" y="1483"/>
      <point x="323" y="1536"/>
      <point x="226" y="1536" type="curve" smooth="yes"/>
      <point x="126" y="1536"/>
      <point x="78" y="1483"/>
      <point x="78" y="1388" type="curve" smooth="yes"/>
      <point x="78" y="1291"/>
      <point x="126" y="1235"/>
      <point x="226" y="1235" type="curve" smooth="yes"/>
      <point x="323" y="1235"/>
      <point x="373" y="1291"/>
    </contour>
    <contour>
      <point x="226" y="1066" type="move" name="_top"/>
    </contour>
  </outline>
</glyph>
<glyph name="ogonek" format="1">
  <advance width="513.500"/>
  <unicode hex="02DB"/>
  <outline>
    <contour>
      <point x="304" y="-425" type="curve" smooth="yes"/>
      <point x="364" y="-425"/>
      <point x="428" y="-410"/>
      <point x="482" y="-389" type="curve"/>
      <point x="482" y="-389"/>
      <point x="476" y="-248"/>
      <point x="475" y="-248" type="curve" smooth="yes"/>
      <point x="461" y="-254"/>
      <point x="402" y="-279"/>
      <point x="349" y="-279" type="curve" smooth="yes"/>
      <point x="308" y="-279"/>
      <point x="280" y="-245"/>
      <point x="280" y="-206" type="curve" smooth="yes"/>
      <point x="280" y="-145"/>
      <point x="320" y="-58"/>
      <point x="396" y="0" type="curve"/>
      <point x="287" y="0" type="line"/>
      <point x="208" y="-43"/>
      <point x="102" y="-127"/>
      <point x="102" y="-254" type="curve" smooth="yes"/>
      <point x="102" y="-369"/>
      <point x="193" y="-425"/>
    </contour>
    <contour>
      <point x="342" y="0" type="move" name="_ogonek"/>
    </contour>
  </outline>
</glyph>
<glyph name="tilde" format="1">
  <advance width="716.400"/>
  <unicode hex="02DC"/>
  <outline>
    <contour>
      <point x="49" y="1225" type="curve"/>
      <point x="174" y="1225" type="line"/>
      <point x="189" y="1294"/>
      <point x="214" y="1319"/>
      <point x="247" y="1319" type="curve" smooth="yes"/>
      <point x="313" y="1319"/>
      <point x="411" y="1225"/>
      <point x="520" y="1225" type="curve" smooth="yes"/>
      <point x="654" y="1225"/>
      <point x="701" y="1356"/>
      <point x="701" y="1469" type="curve"/>
      <point x="575" y="1469" type="line"/>
      <point x="562" y="1409"/>
      <point x="543" y="1390"/>
      <point x="516" y="1390" type="curve" smooth="yes"/>
      <point x="461" y="1390"/>
      <point x="374" y="1469"/>
      <point x="244" y="1469" type="curve" smooth="yes"/>
      <point x="98" y="1469"/>
      <point x="49" y="1344"/>
    </contour>
    <contour>
      <point x="372" y="1066" type="move" name="_top"/>
    </contour>
  </outline>
</glyph>
<glyph name="hungarumlaut" format="1">
  <advance width="849.800"/>
  <unicode hex="02DD"/>
  <outline>
    <contour>
      <point x="127" y="1238" type="line"/>
      <point x="308" y="1238" type="line"/>
      <point x="583" y="1589" type="line"/>
      <point x="327" y="1589" type="line"/>
    </contour>
    <contour>
      <point x="466" y="1238" type="line"/>
      <point x="652" y="1238" type="line"/>
      <point x="969" y="1589" type="line"/>
      <point x="688" y="1589" type="line"/>
    </contour>
    <contour>
      <point x="379" y="1083" type="move" name="_top"/>
    </contour>
  </outline>
</glyph>
<glyph name="dblgravecmb" format="1">
  <advance width="695"/>
  <unicode hex="030F"/>
  <outline>
    <contour>
      <point x="251" y="1193" type="line"/>
      <point x="390" y="1193" type="line"/>
      <point x="151" y="1544" type="line"/>
      <point x="-79" y="1544" type="line"/>
    </contour>
    <contour>
      <point x="529" y="1193" type="line"/>
      <point x="670" y="1193" type="line"/>
      <point x="440" y="1544" type="line"/>
      <point x="214" y="1544" type="line"/>
    </contour>
    <contour>
      <point x="436" y="1066" type="move" name="_top"/>
    </contour>
  </outline>
</glyph>
<glyph name="commaturnedabovecomb" format="1">
  <advance width="600"/>
  <unicode hex="0312"/>
  <outline>
    <contour>
      <point x="171" y="1320" type="line"/>
      <point x="408" y="1320" type="line"/>
      <point x="408" y="1331"/>
      <point x="493" y="1821"/>
      <point x="493" y="1821" type="curve"/>
      <point x="320" y="1821" type="line"/>
      <point x="320" y="1821"/>
      <point x="176" y="1379"/>
      <point x="176" y="1375" type="curve"/>
    </contour>
    <contour>
      <point x="296" y="1066" type="move" name="_top"/>
    </contour>
  </outline>
</glyph>
<glyph name="Delta" format="1">
  <advance width="1162.100"/>
  <unicode hex="0394"/>
  <outline>
    <contour>
      <point x="3" y="0" type="line"/>
      <point x="1227" y="0" type="line"/>
      <point x="726" y="1444" type="line"/>
      <point x="504" y="1444" type="line"/>
    </contour>
    <contour>
      <point x="287" y="188" type="line"/>
      <point x="616" y="1200" type="line"/>
      <point x="950" y="188" type="line"/>
    </contour>
  </outline>
</glyph>
<glyph name="endash" format="1">
  <advance width="1130.700"/>
  <unicode hex="2013"/>
  <outline>
    <contour>
      <point x="82" y="452" type="line"/>
      <point x="1117" y="452" type="line"/>
      <point x="1117" y="636" type="line"/>
      <point x="82" y="636" type="line"/>
    </contour>
  </outline>
</glyph>
<glyph name="emdash" format="1">
  <advance width="1960.100"/>
  <unicode hex="2014"/>
  <outline>
    <contour>
      <point x="36" y="452" type="line"/>
      <point x="2018" y="452" type="line"/>
      <point x="2018" y="636" type="line"/>
      <point x="36" y="636" type="line"/>
    </contour>
  </outline>
</glyph>
<glyph name="quoteleft" format="1">
  <advance width="395.400"/>
  <unicode hex="2018"/>
  <outline>
    <contour>
      <point x="232" y="1048" type="line"/>
      <point x="331" y="1476" type="line"/>
      <point x="169" y="1476" type="line"/>
      <point x="29" y="1048" type="line"/>
    </contour>
  </outline>
</glyph>
<glyph name="quotesinglbase" format="1">
  <advance width="480.700"/>
  <unicode hex="201A"/>
  <outline>
    <contour>
      <point x="100" y="-243" type="line"/>
      <point x="267" y="-243" type="line"/>
      <point x="418" y="233" type="line"/>
      <point x="202" y="233" type="line"/>
    </contour>
  </outline>
</glyph>
<glyph name="quotedblleft" format="1">
  <advance width="767.200"/>
  <unicode hex="201C"/>
  <outline>
    <contour>
      <point x="68" y="1048" type="line"/>
      <point x="271" y="1048" type="line"/>
      <point x="370" y="1476" type="line"/>
      <point x="208" y="1476" type="line"/>
    </contour>
    <contour>
      <point x="381" y="1048" type="line"/>
      <point x="584" y="1048" type="line"/>
      <point x="683" y="1476" type="line"/>
      <point x="521" y="1476" type="line"/>
    </contour>
  </outline>
</glyph>
<glyph name="quotedblright" format="1">
  <advance width="818.400"/>
  <unicode hex="201D"/>
  <outline>
    <contour>
      <point x="60" y="1026" type="line"/>
      <point x="226" y="1026" type="line"/>
      <point x="376" y="1456" type="line"/>
      <point x="162" y="1456" type="line"/>
    </contour>
    <contour>
      <point x="380" y="1026" type="line"/>
      <point x="546" y="1026" type="line"/>
      <point x="696" y="1456" type="line"/>
      <point x="482" y="1456" type="line"/>
    </contour>
  </outline>
</glyph>
<glyph name="quotedblbase" format="1">
  <advance width="855.500"/>
  <unicode hex="201E"/>
  <outline>
    <contour>
      <point x="140" y="-243" type="line"/>
      <point x="308" y="-243" type="line"/>
      <point x="464" y="233" type="line"/>
      <point x="243" y="233" type="line"/>
    </contour>
    <contour>
      <point x="455" y="-243" type="line"/>
      <point x="628" y="-243" type="line"/>
      <point x="783" y="233" type="line"/>
      <point x="564" y="233" type="line"/>
    </contour>
  </outline>
</glyph>
<glyph name="daggerdbl" format="1">
  <advance width="885.600"/>
  <unicode hex="2021"/>
  <outline>
    <contour>
      <point x="375" y="1425" type="line"/>
      <point x="375" y="1086" type="line"/>
      <point x="116" y="1086" type="line"/>
      <point x="116" y="915" type="line"/>
      <point x="375" y="915" type="line"/>
      <point x="375" y="525" type="line"/>
      <point x="114" y="525" type="line"/>
      <point x="114" y="365" type="line"/>
      <point x="375" y="365" type="line"/>
      <point x="375" y="-9" type="line"/>
      <point x="563" y="-9" type="line"/>
      <point x="563" y="365" type="line"/>
      <point x="818" y="365" type="line"/>
      <point x="818" y="525" type="line"/>
      <point x="563" y="525" type="line"/>
      <point x="562" y="915" type="line"/>
      <point x="821" y="915" type="line"/>
      <point x="821" y="1086" type="line"/>
      <point x="561" y="1086" type="line"/>
      <point x="561" y="1425" type="line"/>
    </contour>
  </outline>
</glyph>
<glyph name="perthousand" format="1">
  <advance width="2647"/>
  <unicode hex="2030"/>
  <outline>
    <contour>
      <point x="2237" y="114" type="curve" smooth="yes"/>
      <point x="2101" y="114"/>
      <point x="2041" y="218"/>
      <point x="2041" y="357" type="curve" smooth="yes"/>
      <point x="2041" y="491"/>
      <point x="2101" y="597"/>
      <point x="2237" y="597" type="curve" smooth="yes"/>
      <point x="2371" y="597"/>
      <point x="2431" y="497"/>
      <point x="2431" y="357" type="curve" smooth="yes"/>
      <point x="2431" y="221"/>
      <point x="2372" y="114"/>
    </contour>
    <contour>
      <point x="2236" y="-14" type="curve" smooth="yes"/>
      <point x="2463" y="-14"/>
      <point x="2587" y="147"/>
      <point x="2587" y="355" type="curve" smooth="yes"/>
      <point x="2587" y="566"/>
      <point x="2466" y="723"/>
      <point x="2236" y="723" type="curve" smooth="yes"/>
      <point x="2011" y="723"/>
      <point x="1888" y="563"/>
      <point x="1888" y="355" type="curve" smooth="yes"/>
      <point x="1888" y="147"/>
      <point x="2008" y="-14"/>
    </contour>
    <component base="percent"/>
  </outline>
</glyph>
<glyph name="guilsinglleft" format="1">
  <advance width="523.700"/>
  <unicode hex="2039"/>
  <outline>
    <contour>
      <point x="311" y="161" type="line"/>
      <point x="512" y="161" type="line"/>
      <point x="262" y="551" type="line"/>
      <point x="519" y="948" type="line"/>
      <point x="318" y="948" type="line"/>
      <point x="50" y="551" type="line"/>
    </contour>
  </outline>
</glyph>
<glyph name="foursuperior" format="1">
  <advance width="815"/>
  <unicode hex="2074"/>
  <outline>
    <contour>
      <point x="452" y="552" type="line"/>
      <point x="632" y="552" type="line"/>
      <point x="633" y="762" type="line"/>
      <point x="741" y="762" type="line"/>
      <point x="728" y="917" type="line"/>
      <point x="634" y="917" type="line"/>
      <point x="634" y="1397" type="line"/>
      <point x="454" y="1397" type="line"/>
      <point x="95" y="884" type="line"/>
      <point x="95" y="762" type="line"/>
      <point x="452" y="762" type="line"/>
    </contour>
    <contour>
      <point x="253" y="917" type="line"/>
      <point x="450" y="1187" type="line"/>
      <point x="450" y="917" type="line"/>
    </contour>
  </outline>
</glyph>
<glyph name="Euro" format="1">
  <advance width="1311"/>
  <unicode hex="20AC"/>
  <outline>
    <contour>
      <point x="-2" y="495" type="line"/>
      <point x="843" y="495" type="line"/>
      <point x="844" y="632" type="line"/>
      <point x="365" y="632" type="line"/>
      <point x="364" y="760" type="line"/>
      <point x="844" y="760" type="line"/>
      <point x="845" y="897" type="line"/>
      <point x="0" y="897" type="line"/>
      <point x="-1" y="760" type="line"/>
      <point x="179" y="760" type="line"/>
      <point x="181" y="632" type="line"/>
      <point x="-1" y="632" type="line"/>
    </contour>
    <component base="C"/>
  </outline>
</glyph>
<glyph name="trademark" format="1">
  <advance width="1628.700"/>
  <unicode hex="2122"/>
  <outline>
    <contour>
      <point x="751" y="657" type="line"/>
      <point x="912" y="657" type="line"/>
      <point x="912" y="1163" type="line"/>
      <point x="1104" y="681" type="line"/>
      <point x="1210" y="681" type="line"/>
      <point x="1413" y="1170" type="line"/>
      <point x="1413" y="657" type="line"/>
      <point x="1572" y="657" type="line"/>
      <point x="1572" y="1456" type="line"/>
      <point x="1379" y="1456" type="line"/>
      <point x="1164" y="925" type="line"/>
      <point x="958" y="1456" type="line"/>
      <point x="751" y="1456" type="line"/>
    </contour>
    <contour>
      <point x="301" y="657" type="line"/>
      <point x="464" y="657" type="line"/>
      <point x="464" y="1303" type="line"/>
      <point x="698" y="1303" type="line"/>
      <point x="698" y="1456" type="line"/>
      <point x="63" y="1456" type="line"/>
      <point x="64" y="1303" type="line"/>
      <point x="301" y="1303" type="line"/>
    </contour>
  </outline>
</glyph>
<glyph name="partialdiff" format="1">
  <advance width="1245"/>
  <unicode hex="2202"/>
  <outline>
    <contour>
      <point x="519" y="-20" type="curve"/>
      <point x="888" y="-20"/>
      <point x="1130" y="399"/>
      <point x="1130" y="933" type="curve"/>
      <point x="1130" y="1462"/>
      <point x="679" y="1715"/>
      <point x="246" y="1460" type="curve"/>
      <point x="305" y="1311" type="line"/>
      <point x="609" y="1480"/>
      <point x="897" y="1323"/>
      <point x="887" y="972" type="curve"/>
      <point x="135" y="939"/>
      <point x="-71" y="-20"/>
    </contour>
    <contour>
      <point x="533" y="139" type="curve"/>
      <point x="341" y="139"/>
      <point x="468" y="772"/>
      <point x="879" y="825" type="curve"/>
      <point x="855" y="545"/>
      <point x="744" y="139"/>
    </contour>
  </outline>
</glyph>
<glyph name="minus" format="1">
  <advance width="1227.800"/>
  <unicode hex="2212"/>
  <outline>
    <contour>
      <point x="115" y="642" type="line"/>
      <point x="115" y="458" type="line"/>
      <point x="1110" y="458" type="line"/>
      <point x="1110" y="642" type="line"/>
    </contour>
  </outline>
</glyph>
<glyph name="infinity" format="1">
  <advance width="1735"/>
  <unicode hex="221E"/>
  <outline>
    <contour>
      <point x="1104.23" y="1025"/>
      <point x="975.868" y="921.356"/>
      <point x="867.529" y="782.562" type="curve"/>
      <point x="752.589" y="925.335"/>
      <point x="624.182" y="1025"/>
      <point x="458" y="1025" type="curve"/>
      <point x="247.416" y="1025"/>
      <point x="78" y="854.45"/>
      <point x="78" y="642" type="curve"/>
      <point x="78" y="413.907"/>
      <point x="218.809" y="212"/>
      <point x="462" y="212" type="curve"/>
      <point x="624.502" y="212"/>
      <point x="755.042" y="314.987"/>
      <point x="867.856" y="454.108" type="curve"/>
      <point x="994.842" y="295.93"/>
      <point x="1122.64" y="212"/>
      <point x="1271" y="212" type="curve"/>
      <point x="1483.72" y="212"/>
      <point x="1652" y="383.686"/>
      <point x="1652" y="625" type="curve"/>
      <point x="1652" y="853.342"/>
      <point x="1514.79" y="1025"/>
      <point x="1273" y="1025" type="curve"/>
    </contour>
    <contour>
      <point x="567.336" y="825"/>
      <point x="661.469" y="742.458"/>
      <point x="743.678" y="620.796" type="curve"/>
      <point x="659.438" y="503.107"/>
      <point x="565.285" y="416"/>
      <point x="464" y="416" type="curve"/>
      <point x="348.113" y="416"/>
      <point x="269" y="517.213"/>
      <point x="269" y="622" type="curve"/>
      <point x="269" y="734.583"/>
      <point x="340.891" y="825"/>
      <point x="457" y="825" type="curve"/>
    </contour>
    <contour>
      <point x="1376.49" y="825"/>
      <point x="1452" y="744.369"/>
      <point x="1452" y="647" type="curve"/>
      <point x="1452" y="511.231"/>
      <point x="1393.37" y="416"/>
      <point x="1273" y="416" type="curve"/>
      <point x="1174.86" y="416"/>
      <point x="1099.56" y="481.479"/>
      <point x="993.388" y="622.832" type="curve"/>
      <point x="1073.16" y="734.788"/>
      <point x="1164.01" y="825"/>
      <point x="1269" y="825" type="curve"/>
    </contour>
  </outline>
</glyph>
<glyph name="approxequal" format="1">
  <advance width="1163.900"/>
  <unicode hex="2248"/>
  <outline>
    <contour>
      <point x="976" y="715"/>
      <point x="919" y="675"/>
      <point x="846" y="675" type="curve" smooth="yes"/>
      <point x="791" y="675"/>
      <point x="734" y="698"/>
      <point x="653" y="739" type="curve"/>
      <point x="574" y="778"/>
      <point x="487" y="811"/>
      <point x="402" y="811" type="curve" smooth="yes"/>
      <point x="252" y="811"/>
      <point x="164" y="719"/>
      <point x="121" y="596" type="curve"/>
      <point x="223" y="484" type="line"/>
      <point x="256" y="565"/>
      <point x="310" y="627"/>
      <point x="396" y="627" type="curve" smooth="yes"/>
      <point x="460" y="627"/>
      <point x="511" y="604"/>
      <point x="573" y="570" type="curve"/>
      <point x="669" y="521"/>
      <point x="741" y="490"/>
      <point x="832" y="490" type="curve" smooth="yes"/>
      <point x="982" y="490"/>
      <point x="1096" y="591"/>
      <point x="1139" y="705" type="curve"/>
      <point x="1046" y="811" type="line"/>
    </contour>
    <contour>
      <point x="975" y="407"/>
      <point x="918" y="366"/>
      <point x="845" y="366" type="curve" smooth="yes"/>
      <point x="792" y="366"/>
      <point x="732" y="390"/>
      <point x="651" y="431" type="curve"/>
      <point x="573" y="469"/>
      <point x="487" y="502"/>
      <point x="402" y="502" type="curve" smooth="yes"/>
      <point x="252" y="502"/>
      <point x="163" y="409"/>
      <point x="120" y="287" type="curve"/>
      <point x="222" y="175" type="line"/>
      <point x="256" y="256"/>
      <point x="308" y="318"/>
      <point x="396" y="318" type="curve" smooth="yes"/>
      <point x="460" y="318"/>
      <point x="510" y="295"/>
      <point x="572" y="261" type="curve"/>
      <point x="670" y="212"/>
      <point x="741" y="181"/>
      <point x="832" y="181" type="curve" smooth="yes"/>
      <point x="982" y="181"/>
      <point x="1095" y="282"/>
      <point x="1138" y="396" type="curve"/>
      <point x="1045" y="502" type="line"/>
    </contour>
  </outline>
</glyph>
<glyph name="notequal" format="1">
  <advance width="1154.900"/>
  <unicode hex="2260"/>
  <outline>
    <contour>
      <point x="429" y="41" type="line"/>
      <point x="560" y="308" type="line"/>
      <point x="1101" y="308" type="line"/>
      <point x="1089" y="476" type="line"/>
      <point x="640" y="476" type="line"/>
      <point x="752" y="696" type="line"/>
      <point x="1101" y="696" type="line"/>
      <point x="1088" y="875" type="line"/>
      <point x="830" y="875" type="line"/>
      <point x="941" y="1104" type="line"/>
      <point x="778" y="1126" type="line"/>
      <point x="650" y="875" type="line"/>
      <point x="125" y="875" type="line"/>
      <point x="137" y="697" type="line"/>
      <point x="573" y="697" type="line"/>
      <point x="463" y="476" type="line"/>
      <point x="127" y="476" type="line"/>
      <point x="137" y="308" type="line"/>
      <point x="382" y="308" type="line"/>
      <point x="268" y="66" type="line"/>
    </contour>
  </outline>
</glyph>
<glyph name="lessequal" format="1">
  <advance width="1089"/>
  <unicode hex="2264"/>
  <outline>
    <contour>
      <point x="1020" y="279" type="line"/>
      <point x="1020" y="479" type="line"/>
      <point x="380" y="755" type="line"/>
      <point x="1020" y="1046" type="line"/>
      <point x="1020" y="1241" type="line"/>
      <point x="133" y="812" type="line"/>
      <point x="133" y="696" type="line"/>
    </contour>
    <contour>
      <point x="123" y="2" type="line"/>
      <point x="1030" y="2" type="line"/>
      <point x="1030" y="160" type="line"/>
      <point x="123" y="160" type="line"/>
    </contour>
  </outline>
</glyph>
<glyph name=".notdef" format="1">
  <advance width="1013.700"/>
  <outline>
    <contour>
      <point x="211" y="-332" type="line"/>
      <point x="211" y="1383" type="line"/>
      <point x="849" y="1383" type="line"/>
      <point x="849" y="-332" type="line"/>
    </contour>
    <contour>
      <point x="105" y="-437" type="line"/>
      <point x="954" y="-437" type="line"/>
      <point x="954" y="1489" type="line"/>
      <point x="105" y="1489" type="line"/>
    </contour>
  </outline>
</glyph>
<glyph name="caron.alt" format="1">
  <advance width="600"/>
  <outline>
    <contour>
      <point x="359" y="1064" type="line"/>
      <point x="504" y="1064" type="line"/>
      <point x="570" y="1560" type="line"/>
      <point x="369" y="1560" type="line"/>
    </contour>
    <contour>
      <point x="145" y="1082" type="move" name="_caron.alt"/>
    </contour>
  </outline>
</glyph>
